<?xml version="1.0"?>
<svg width="496.05" height="52.53099999999999" xmlns="http://www.w3.org/2000/svg" xmlns:svg="http://www.w3.org/2000/svg" xmlns:xlink="http://www.w3.org/1999/xlink">

 <g class="layer">
  <title>Layer 1</title>
  <path d="m0,52.53l496.05,0l0,-52.53l-496.05,0l0,52.53z" fill="#00f" id="svg_2"/>
  <clipPath id="a">
   <path d="m0,52.53l496.05,0l0,-52.53l-496.05,0l0,52.53z" id="svg_3" transform="matrix(1 0 0 -1 0 52.53)"/>
  </clipPath>
  <g clip-path="url(#a)" fill="#fff" id="svg_4">
   <path d="m79.85,28.95l4.88,0l0,1.27l-3.46,0l0,1.31l3.05,0l0,1.27l-3.05,0l0,1.36l3.51,0l0,1.27l-4.93,0l0,-6.48zm-7.14,0l1.32,0l3.03,3.99l0,-3.99l1.41,0l0,6.47l-1.22,0l-3.14,-4.12l0,4.12l-1.41,0l0,-6.47l0.01,0zm-2.72,0l1.43,0l0,6.48l-1.43,0l0,-6.48zm-6.91,0l2.53,0c2.04,0 3.45,1.39 3.45,3.22l0,0.02c0,1.83 -1.41,3.24 -3.45,3.24l-2.53,0l0,-6.48zm2.52,5.19c1.17,0 1.95,-0.78 1.95,-1.94l0,-0.01c0,-1.15 -0.78,-1.96 -1.95,-1.96l-1.11,0l0,3.91l1.11,0zm-9.36,-1.49l0,-3.7l1.42,0l0,3.67c0,1.06 0.54,1.6 1.4,1.6c0.86,0 1.39,-0.53 1.39,-1.55l0,-3.72l1.43,0l0,3.65c0,1.96 -1.11,2.92 -2.84,2.92c-1.74,0 -2.8,-0.96 -2.8,-2.87m-4.99,-3.7l1.43,0l0,6.48l-1.43,0l0,-6.48zm-6.79,0l2.53,0c2.04,0 3.45,1.39 3.45,3.22l0,0.02c0,1.83 -1.41,3.24 -3.45,3.24l-2.53,0l0,-6.48zm2.51,5.19c1.17,0 1.96,-0.78 1.96,-1.94l0,-0.01c0,-1.16 -0.79,-1.96 -1.96,-1.96l-1.09,0l0,3.91l1.09,0zm52.77,-13.56l1.42,0l0,6.48l-1.42,0l0,-6.48zm-6.85,0l2.54,0c2.03,0 3.44,1.4 3.44,3.22l0,0.02c0,1.83 -1.41,3.24 -3.44,3.24l-2.54,0l0,-6.48zm2.54,5.2c1.17,0 1.95,-0.79 1.95,-1.94l0,-0.02c0,-1.15 -0.78,-1.95 -1.95,-1.95l-1.11,0l0,3.91l1.11,0zm-9.28,-1.49l0,-3.71l1.42,0l0,3.67c0,1.06 0.53,1.61 1.4,1.61s1.39,-0.53 1.39,-1.56l0,-3.72l1.43,0l0,3.66c0,1.95 -1.11,2.92 -2.84,2.92c-1.73,0 -2.8,-0.97 -2.8,-2.87m-4.17,-2.39l-1.97,0l0,-1.31l5.37,0l0,1.31l-1.97,0l0,5.16l-1.43,0l0,-5.16zm-7.42,4.21l0.83,-1.01c0.58,0.48 1.2,0.79 1.94,0.79c0.58,0 0.93,-0.22 0.93,-0.61l0,-0.01c0,-0.36 -0.22,-0.55 -1.3,-0.82c-1.3,-0.34 -2.15,-0.69 -2.15,-1.97l0,-0.02c0,-1.17 0.95,-1.96 2.27,-1.96c0.94,0 1.74,0.29 2.4,0.82l-0.74,1.08c-0.57,-0.4 -1.14,-0.64 -1.68,-0.64c-0.55,0 -0.83,0.25 -0.83,0.56l0,0.01c0,0.43 0.27,0.56 1.39,0.85c1.31,0.34 2.05,0.82 2.05,1.94l0,0.02c0,1.28 -0.98,2 -2.37,2a4.03,4.03 0 0 1 -2.74,-1.03m-4.76,-5.53l1.43,0l0,6.48l-1.43,0l0,-6.48zm-5.42,0l1.43,0l0,5.18l3.22,0l0,1.3l-4.65,0l0,-6.48zm-7.39,3.26l0,-0.02c0,-1.84 1.45,-3.35 3.4,-3.35c1.17,0 1.88,0.32 2.55,0.89l-0.9,1.09c-0.5,-0.42 -0.94,-0.66 -1.7,-0.66c-1.04,0 -1.86,0.91 -1.86,2.02l0,0.01c0,1.19 0.82,2.06 1.96,2.06c0.51,0 0.98,-0.13 1.35,-0.39l0,-0.93l-1.45,0l0,-1.23l2.81,0l0,2.8a4.22,4.22 0 0 1 -2.78,1.03c-2,0.01 -3.38,-1.41 -3.38,-3.32m-5.73,-3.25l4.88,0l0,1.26l-3.46,0l0,1.32l3.05,0l0,1.26l-3.05,0l0,1.36l3.51,0l0,1.27l-4.94,0l0.01,-6.47zm-6.8,0l2.53,0c2.04,0 3.45,1.39 3.45,3.22l0,0.01c0,1.83 -1.41,3.24 -3.45,3.24l-2.53,0l0,-6.47zm2.52,5.19c1.17,0 1.95,-0.79 1.95,-1.94l0,-0.02c0,-1.15 -0.78,-1.95 -1.95,-1.95l-1.09,0l0,3.91l1.09,0zm50.05,-13.61l1.31,0l2.78,6.52l-1.49,0l-0.6,-1.46l-2.74,0l-0.59,1.46l-1.46,0l2.79,-6.52zm1.23,-0.56l-1.07,0l-1.25,-0.91l1.22,-0.53l1.1,1.44zm0.28,4.37l-0.87,-2.1l-0.85,2.1l1.72,0zm-7.07,-2.45l-1.97,0l0,-1.31l5.37,0l0,1.31l-1.97,0l0,5.16l-1.43,0l0,-5.16zm-4.25,-1.31l1.43,0l0,6.47l-1.43,0l0,-6.47zm-6.52,5.53l0.83,-1.01c0.58,0.48 1.2,0.78 1.94,0.78c0.58,0 0.93,-0.22 0.93,-0.61l0,-0.01c0,-0.35 -0.22,-0.55 -1.3,-0.82c-1.3,-0.34 -2.15,-0.69 -2.15,-1.99l0,-0.01c0,-1.17 0.95,-1.96 2.26,-1.96a3.82,3.82 0 0 1 2.41,0.82l-0.74,1.07c-0.58,-0.4 -1.14,-0.64 -1.68,-0.64c-0.55,0 -0.84,0.26 -0.84,0.56l0,0.02c0,0.42 0.28,0.56 1.4,0.85c1.31,0.33 2.05,0.82 2.05,1.94l0,0.05c0,1.28 -0.98,2 -2.37,2a4.16,4.16 0 0 1 -2.74,-1.04m-6.12,-5.53l2.96,0c0.82,0 1.46,0.22 1.89,0.65c0.35,0.36 0.56,0.87 0.56,1.48l0,0.02c0,1.04 -0.56,1.69 -1.39,2l1.59,2.31l-1.67,0l-1.4,-2.05l-1.12,0l0,2.06l-1.43,0l0.01,-6.47zm2.87,3.14c0.68,0 1.09,-0.37 1.09,-0.91l0,-0.02c0,-0.61 -0.44,-0.93 -1.13,-0.93l-1.41,0l0,1.86l1.45,0zm-9.16,-3.14l4.89,0l0,1.26l-3.46,0l0,1.32l3.04,0l0,1.26l-3.04,0l0,1.37l3.51,0l0,1.26l-4.94,0l0,-6.47zm-7.26,0l1.57,0l1.7,4.57l1.7,-4.57l1.54,0l-2.61,6.52l-1.25,0l-2.65,-6.52zm-2.18,0l1.43,0l0,6.47l-1.43,0l0,-6.47zm-7.45,0l1.31,0l3.03,3.99l0,-3.99l1.41,0l0,6.47l-1.21,0l-3.15,-4.12l0,4.12l-1.41,0l0,-6.47l0.02,0zm-6.94,3.7l0,-3.7l1.43,0l0,3.67c0,1.06 0.53,1.6 1.39,1.6s1.39,-0.53 1.39,-1.55l0,-3.72l1.43,0l0,3.65c0,1.96 -1.11,2.92 -2.84,2.92c-1.74,0 -2.8,-0.96 -2.8,-2.87m38.59,23.27l-1.39,3.08l0.35,0l0.37,-0.82l1.67,0l0.35,0.82l0.37,0l-1.4,-3.08l-0.32,0zm0.16,0.4l0.69,1.57l-1.39,0l0.7,-1.57zm-4.29,-0.38l1.31,0c0.39,0 0.67,0.11 0.87,0.3a0.88,0.88 0 0 1 0.24,0.61l0,0.02c0,0.51 -0.36,0.8 -0.84,0.9l0.95,1.25l-0.42,0l-0.88,-1.19l-0.88,0l0,1.19l-0.35,0l0,-3.08zm1.28,1.55c0.46,0 0.78,-0.24 0.78,-0.62l0,-0.02c0,-0.38 -0.28,-0.61 -0.78,-0.61l-0.95,0l0,1.25l0.95,0zm-4.52,0.23l0,-1.78l0.35,0l0,1.76c0,0.66 0.35,1.03 0.93,1.03c0.56,0 0.93,-0.34 0.93,-1.01l0,-1.78l0.35,0l0,1.75c0,0.89 -0.51,1.36 -1.28,1.36s-1.28,-0.47 -1.28,-1.33m-2.84,-1.78l0,0.32l1.03,0l0,2.74l0.35,0l0,-2.74l1.03,0l0,-0.32l-2.41,0zm-2.9,1.78l0,-1.78l0.35,0l0,1.76c0,0.66 0.36,1.03 0.93,1.03c0.57,0 0.93,-0.34 0.93,-1.01l0,-1.78l0.36,0l0,1.75c0,0.89 -0.52,1.36 -1.29,1.36s-1.28,-0.47 -1.28,-1.33m-2.63,-1.78l0,3.06l0.34,0l0,-1.33l1.67,0l0,-0.32l-1.67,0l0,-1.09l1.86,0l0,-0.32l-2.2,0zm-4.88,0l0,0.32l1.02,0l0,2.74l0.35,0l0,-2.74l1.03,0l0,-0.32l-2.4,0zm-0.76,0l0,2.45l-1.92,-2.45l-0.32,0l0,3.06l0.33,0l0,-2.52l1.98,2.52l0.27,0l0,-3.06l-0.34,0zm-5.51,1.78l0,-1.78l0.35,0l0,1.76c0,0.66 0.35,1.03 0.93,1.03c0.56,0 0.93,-0.34 0.93,-1.01l0,-1.78l0.35,0l0,1.75c0,0.89 -0.51,1.36 -1.28,1.36c-0.75,0 -1.28,-0.47 -1.28,-1.33m-2.77,0.83l0.21,-0.25c0.32,0.28 0.62,0.43 1.04,0.43c0.41,0 0.69,-0.23 0.69,-0.51l0,-0.02c0,-0.29 -0.16,-0.45 -0.81,-0.58c-0.7,-0.16 -1.02,-0.38 -1.02,-0.88l0,-0.02c0,-0.48 0.41,-0.83 1.01,-0.83c0.45,0 0.77,0.13 1.07,0.39l-0.21,0.27c-0.29,-0.23 -0.56,-0.34 -0.88,-0.34c-0.4,0 -0.66,0.23 -0.66,0.5l0,0.01c0,0.29 0.16,0.45 0.84,0.6c0.69,0.14 0.99,0.4 0.99,0.86l0,0.02c0,0.53 -0.43,0.86 -1.04,0.86a1.85,1.85 0 0 1 -1.23,-0.51m-4.68,-1.07c0,-0.88 0.64,-1.59 1.55,-1.59c0.56,0 0.88,0.19 1.2,0.48l-0.24,0.26c-0.25,-0.24 -0.54,-0.42 -0.96,-0.42c-0.67,0 -1.19,0.55 -1.19,1.25l0,0.02c0,0.7 0.52,1.26 1.19,1.26c0.42,0 0.69,-0.16 0.99,-0.45l0.23,0.23c-0.32,0.32 -0.68,0.54 -1.22,0.54c-0.9,-0.01 -1.55,-0.7 -1.55,-1.58m-0.9,-1.54l0.35,0l0,3.06l-0.35,0l0,-3.06zm-1.25,0l0,1.36l-1.77,0l0,-1.36l-0.35,0l0,3.06l0.35,0l0,-1.38l1.77,0l0,1.38l0.35,0l0,-3.06l-0.35,0zm-20.57,-0.99c-1.82,0 -3.62,-0.36 -5.29,-1.08a13.86,13.86 0 0 1 -2.3,-1.25a12.46,12.46 0 0 1 -2.01,-1.67a14.52,14.52 0 0 1 -1.66,-2.02a12.98,12.98 0 0 1 -1.25,-2.3a13.63,13.63 0 0 1 -1.08,-5.29c0,-1.83 0.35,-3.62 1.08,-5.29c0.33,-0.8 0.77,-1.59 1.25,-2.31a13.24,13.24 0 0 1 1.65,-2a15.38,15.38 0 0 1 2,-1.67a12.78,12.78 0 0 1 2.31,-1.25a13.57,13.57 0 0 1 5.29,-1.07c1.82,0 3.62,0.35 5.29,1.07c0.8,0.34 1.58,0.77 2.31,1.25a13.31,13.31 0 0 1 2.02,1.67c0.6,0.61 1.17,1.3 1.66,2c0.5,0.72 0.92,1.51 1.25,2.31a13.57,13.57 0 0 1 1.08,5.29c0,1.83 -0.36,3.62 -1.08,5.29c-0.34,0.8 -0.77,1.58 -1.25,2.31a13.24,13.24 0 0 1 -1.66,2.01a14.53,14.53 0 0 1 -2.02,1.67c-0.73,0.5 -1.51,0.92 -2.31,1.25a13.49,13.49 0 0 1 -5.28,1.08m0,-26.87c-7.32,0 -13.27,5.95 -13.27,13.27c0,7.33 5.95,13.27 13.27,13.27c7.33,0 13.28,-5.94 13.28,-13.27c0,-7.32 -5.97,-13.27 -13.28,-13.27m-0.3,23.76l-0.11,0c-0.11,0 -0.21,-0.1 -0.21,-0.23c0,-0.11 0.11,-0.21 0.22,-0.21l0.12,0c0.11,0 0.2,0.1 0.2,0.23c-0.01,0.12 -0.11,0.21 -0.22,0.21m0.64,0a0.21,0.21 0 0 1 -0.21,-0.21c0,-0.11 0.1,-0.23 0.21,-0.23l0.11,0c0.11,0 0.23,0.08 0.23,0.21c0,0.11 -0.08,0.23 -0.21,0.23l-0.13,0m-1.39,-0.05l-0.02,0c-0.03,0 -0.06,-0.02 -0.11,-0.02c-0.11,-0.02 -0.21,-0.13 -0.19,-0.24c0.01,-0.11 0.12,-0.21 0.24,-0.19c0.03,0 0.06,0.02 0.11,0.02c0.11,0.01 0.21,0.11 0.19,0.24a0.23,0.23 0 0 1 -0.22,0.19m2.14,0c-0.11,0 -0.2,-0.08 -0.2,-0.19a0.21,0.21 0 0 1 0.19,-0.24c0.03,0 0.06,-0.02 0.11,-0.02a0.22,0.22 0 0 1 0.24,0.19c0.02,0.13 -0.06,0.22 -0.19,0.24c-0.03,0 -0.07,0.02 -0.11,0.02l-0.04,0m-2.88,-0.1l-0.03,0c-0.04,0 -0.07,-0.01 -0.12,-0.01c-0.11,-0.02 -0.19,-0.13 -0.17,-0.26c0.01,-0.11 0.13,-0.19 0.26,-0.18c0.03,0 0.06,0.02 0.09,0.02c0.11,0.02 0.19,0.13 0.18,0.26a0.22,0.22 0 0 1 -0.21,0.17m3.62,-0.01a0.21,0.21 0 0 1 -0.21,-0.18a0.23,0.23 0 0 1 0.18,-0.26c0.03,0 0.06,-0.01 0.1,-0.01a0.23,0.23 0 0 1 0.25,0.17c0.03,0.13 -0.05,0.23 -0.17,0.26c-0.04,0 -0.07,0.02 -0.12,0.02l-0.03,0m-4.36,-0.15l-0.05,0c-0.03,-0.01 -0.06,-0.01 -0.11,-0.03a0.21,0.21 0 0 1 -0.14,-0.26a0.21,0.21 0 0 1 0.25,-0.14c0.04,0.01 0.07,0.01 0.1,0.03c0.11,0.03 0.19,0.15 0.16,0.26a0.23,0.23 0 0 1 -0.21,0.14m5.1,-0.01a0.22,0.22 0 0 1 -0.21,-0.16c-0.03,-0.12 0.03,-0.23 0.16,-0.26c0.03,-0.02 0.06,-0.02 0.1,-0.03a0.21,0.21 0 0 1 0.25,0.14a0.21,0.21 0 0 1 -0.14,0.26c-0.03,0.01 -0.06,0.01 -0.11,0.03c-0.02,0.02 -0.04,0.02 -0.05,0.02m-5.82,-0.2c-0.02,0 -0.05,0 -0.06,-0.01c-0.04,-0.02 -0.07,-0.02 -0.12,-0.03a0.2,0.2 0 0 1 -0.12,-0.28a0.2,0.2 0 0 1 0.27,-0.13c0.03,0.02 0.06,0.02 0.09,0.04c0.12,0.03 0.18,0.16 0.13,0.27c-0.01,0.08 -0.09,0.14 -0.19,0.14m6.54,-0.01a0.23,0.23 0 0 1 -0.21,-0.15c-0.03,-0.11 0.02,-0.24 0.13,-0.27c0.03,-0.02 0.06,-0.02 0.1,-0.03c0.11,-0.03 0.24,0.01 0.27,0.13c0.03,0.11 -0.02,0.24 -0.13,0.27c-0.03,0.02 -0.06,0.02 -0.11,0.03c0,0 -0.03,0.02 -0.05,0.02m-7.24,-0.26c-0.04,0 -0.05,0 -0.08,-0.02l-0.1,-0.04a0.22,0.22 0 0 1 -0.11,-0.29a0.22,0.22 0 0 1 0.29,-0.11l0.09,0.04a0.22,0.22 0 0 1 0.11,0.29a0.25,0.25 0 0 1 -0.2,0.13m7.95,-0.02a0.21,0.21 0 0 1 -0.2,-0.12a0.22,0.22 0 0 1 0.12,-0.29l0.09,-0.05c0.11,-0.05 0.24,0 0.29,0.11c0.05,0.11 0,0.24 -0.11,0.29l-0.1,0.05c-0.05,0 -0.08,0.01 -0.09,0.01m-8.63,-0.3c-0.03,0 -0.06,-0.02 -0.09,-0.02l-0.1,-0.04c-0.11,-0.05 -0.15,-0.18 -0.1,-0.29c0.05,-0.11 0.2,-0.15 0.29,-0.1l0.1,0.05c0.11,0.05 0.14,0.18 0.09,0.29a0.21,0.21 0 0 1 -0.19,0.11m9.3,-0.02c-0.08,0 -0.15,-0.04 -0.19,-0.11c-0.05,-0.11 -0.02,-0.24 0.09,-0.29l0.1,-0.04c0.09,-0.07 0.24,-0.02 0.29,0.09c0.06,0.1 0.01,0.24 -0.1,0.29l-0.1,0.05c-0.03,0 -0.06,0.01 -0.09,0.01m-9.96,-0.35a0.3,0.3 0 0 1 -0.11,-0.03a0.35,0.35 0 0 1 -0.09,-0.06c-0.1,-0.07 -0.13,-0.2 -0.07,-0.31c0.07,-0.11 0.2,-0.13 0.29,-0.06l0.1,0.04a0.21,0.21 0 0 1 0.06,0.29a0.18,0.18 0 0 1 -0.17,0.13m10.61,-0.01c-0.07,0 -0.15,-0.04 -0.18,-0.1c-0.06,-0.1 -0.03,-0.24 0.06,-0.29a0.33,0.33 0 0 0 0.1,-0.06c0.1,-0.07 0.22,-0.04 0.3,0.06c0.07,0.1 0.04,0.23 -0.06,0.31c-0.03,0.01 -0.06,0.03 -0.1,0.06c-0.04,0 -0.09,0.02 -0.12,0.02m-11.24,-0.39c-0.05,0 -0.08,-0.02 -0.13,-0.03c-0.03,-0.02 -0.06,-0.05 -0.1,-0.07c-0.09,-0.06 -0.11,-0.2 -0.04,-0.3s0.21,-0.11 0.3,-0.05c0.03,0.02 0.05,0.05 0.08,0.07c0.1,0.06 0.11,0.2 0.05,0.3a0.2,0.2 0 0 1 -0.16,0.08m11.86,-0.03a0.22,0.22 0 0 1 -0.18,-0.1a0.23,0.23 0 0 1 0.05,-0.3a0.35,0.35 0 0 0 0.08,-0.07a0.23,0.23 0 0 1 0.31,0.05c0.08,0.1 0.04,0.23 -0.05,0.31c-0.03,0.01 -0.07,0.04 -0.1,0.06a0.17,0.17 0 0 1 -0.11,0.05m-12.45,-0.43a0.26,0.26 0 0 1 -0.15,-0.05c-0.03,-0.02 -0.05,-0.05 -0.08,-0.07c-0.09,-0.08 -0.09,-0.2 -0.03,-0.3c0.08,-0.1 0.21,-0.1 0.3,-0.02c0.04,0.02 0.05,0.05 0.08,0.07c0.1,0.08 0.12,0.21 0.04,0.3c-0.05,0.03 -0.1,0.07 -0.16,0.07m13.04,-0.04a0.2,0.2 0 0 1 -0.16,-0.08c-0.08,-0.09 -0.06,-0.22 0.03,-0.3c0.04,-0.02 0.05,-0.05 0.08,-0.06a0.22,0.22 0 0 1 0.31,0.01c0.08,0.08 0.06,0.22 -0.02,0.31c-0.03,0.01 -0.06,0.04 -0.08,0.06c-0.06,0.05 -0.11,0.06 -0.16,0.06m-13.6,-0.46c-0.05,0 -0.12,-0.02 -0.15,-0.07a3.09,3.09 0 0 1 -0.08,-0.08a0.22,0.22 0 0 1 0,-0.3a0.22,0.22 0 0 1 0.31,0c0.03,0.02 0.04,0.05 0.08,0.08c0.08,0.08 0.08,0.22 0,0.3a0.34,0.34 0 0 1 -0.16,0.07m14.15,-0.05a0.21,0.21 0 0 1 -0.16,-0.06a0.22,0.22 0 0 1 0,-0.31c0.03,-0.01 0.05,-0.05 0.08,-0.08c0.08,-0.08 0.22,-0.08 0.3,0c0.08,0.08 0.08,0.23 0,0.31l-0.08,0.08c-0.03,0.04 -0.08,0.06 -0.14,0.06m-14.68,-0.5a0.21,0.21 0 0 1 -0.16,-0.06l-0.08,-0.08a0.22,0.22 0 0 1 0.01,-0.31c0.08,-0.07 0.23,-0.06 0.31,0.02c0.01,0.03 0.04,0.05 0.06,0.08c0.08,0.1 0.08,0.23 -0.02,0.31c-0.01,0.03 -0.06,0.04 -0.12,0.04m15.21,-0.04a0.26,0.26 0 0 1 -0.15,-0.05c-0.09,-0.08 -0.09,-0.21 -0.01,-0.31c0.01,-0.03 0.05,-0.05 0.06,-0.08c0.08,-0.09 0.21,-0.09 0.31,-0.01c0.09,0.08 0.09,0.2 0.01,0.3c-0.01,0.03 -0.05,0.05 -0.06,0.08a0.21,0.21 0 0 1 -0.16,0.07m-15.69,-0.53a0.26,0.26 0 0 1 -0.18,-0.08c-0.02,-0.03 -0.05,-0.07 -0.06,-0.08c-0.08,-0.1 -0.05,-0.23 0.04,-0.31a0.23,0.23 0 0 1 0.31,0.05c0.01,0.03 0.05,0.06 0.06,0.08c0.08,0.1 0.05,0.23 -0.03,0.3a0.47,0.47 0 0 1 -0.14,0.04m16.17,-0.05a0.18,0.18 0 0 1 -0.13,-0.05c-0.1,-0.06 -0.11,-0.21 -0.03,-0.3a0.35,0.35 0 0 1 0.06,-0.08c0.07,-0.1 0.21,-0.12 0.31,-0.05c0.09,0.06 0.11,0.21 0.04,0.3c-0.01,0.03 -0.04,0.07 -0.06,0.1a0.33,0.33 0 0 1 -0.19,0.08m-16.61,-0.56c-0.06,0 -0.14,-0.03 -0.17,-0.1a0.33,0.33 0 0 0 -0.07,-0.09c-0.06,-0.1 -0.03,-0.23 0.07,-0.31c0.09,-0.06 0.24,-0.03 0.29,0.07a0.34,0.34 0 0 0 0.06,0.09c0.06,0.1 0.03,0.23 -0.06,0.31a0.23,0.23 0 0 1 -0.12,0.03m17.04,-0.05a0.3,0.3 0 0 1 -0.11,-0.03a0.23,0.23 0 0 1 -0.07,-0.31a0.34,0.34 0 0 1 0.07,-0.09a0.22,0.22 0 0 1 0.3,-0.07a0.22,0.22 0 0 1 0.07,0.31c-0.02,0.03 -0.03,0.06 -0.07,0.09c-0.06,0.07 -0.12,0.1 -0.19,0.1m-17.42,-0.59a0.21,0.21 0 0 1 -0.19,-0.12l-0.05,-0.09c-0.05,-0.11 -0.02,-0.24 0.08,-0.29c0.11,-0.05 0.24,-0.02 0.29,0.08l0.05,0.1a0.21,0.21 0 0 1 -0.08,0.29c-0.04,0.01 -0.07,0.03 -0.1,0.03m17.81,-0.05c-0.04,0 -0.07,-0.02 -0.1,-0.03c-0.1,-0.07 -0.14,-0.2 -0.08,-0.29l0.05,-0.1a0.22,0.22 0 0 1 0.29,-0.09a0.23,0.23 0 0 1 0.09,0.28l-0.05,0.1c-0.06,0.08 -0.14,0.13 -0.2,0.13m-18.16,-0.63a0.21,0.21 0 0 1 -0.2,-0.12l-0.04,-0.1a0.22,0.22 0 0 1 0.11,-0.29c0.11,-0.05 0.24,0 0.29,0.11l0.04,0.1c0.05,0.11 0,0.24 -0.11,0.29c-0.03,0 -0.06,0.01 -0.09,0.01m18.49,-0.04c-0.03,0 -0.06,0 -0.09,-0.02c-0.12,-0.05 -0.16,-0.18 -0.12,-0.29l0.05,-0.09a0.22,0.22 0 0 1 0.29,-0.12c0.11,0.05 0.16,0.18 0.11,0.29l-0.05,0.1a0.21,0.21 0 0 1 -0.19,0.13m-18.78,-0.66a0.2,0.2 0 0 1 -0.19,-0.15c-0.02,-0.03 -0.04,-0.06 -0.04,-0.09c-0.03,-0.11 0.02,-0.24 0.13,-0.27c0.11,-0.04 0.24,0.01 0.27,0.12c0.02,0.04 0.04,0.07 0.04,0.1a0.2,0.2 0 0 1 -0.13,0.27c-0.02,0.02 -0.05,0.02 -0.08,0.02m19.07,-0.03c-0.02,0 -0.05,0 -0.08,-0.02c-0.11,-0.05 -0.18,-0.16 -0.13,-0.27c0.02,-0.03 0.02,-0.07 0.03,-0.1a0.2,0.2 0 0 1 0.28,-0.13a0.2,0.2 0 0 1 0.13,0.28c-0.02,0.03 -0.04,0.06 -0.04,0.09a0.2,0.2 0 0 1 -0.19,0.15m-19.3,-0.68a0.22,0.22 0 0 1 -0.2,-0.16c-0.02,-0.03 -0.02,-0.06 -0.04,-0.11c-0.03,-0.11 0.04,-0.22 0.15,-0.27c0.11,-0.03 0.24,0.03 0.27,0.14c0.02,0.03 0.02,0.07 0.03,0.1c0.03,0.11 -0.03,0.22 -0.14,0.27c-0.03,0.03 -0.05,0.03 -0.07,0.03m19.53,-0.04c-0.02,0 -0.04,0 -0.07,-0.02c-0.11,-0.03 -0.18,-0.14 -0.14,-0.27c0.01,-0.04 0.01,-0.07 0.03,-0.1a0.21,0.21 0 0 1 0.26,-0.14c0.11,0.03 0.17,0.14 0.14,0.27c-0.02,0.03 -0.02,0.06 -0.03,0.11c-0.02,0.1 -0.1,0.15 -0.19,0.15m-19.72,-0.68a0.21,0.21 0 0 1 -0.21,-0.17c0,-0.04 -0.01,-0.07 -0.01,-0.12c-0.04,-0.11 0.04,-0.22 0.16,-0.25c0.11,-0.03 0.22,0.05 0.25,0.17c0,0.04 0.02,0.07 0.02,0.1c0.03,0.11 -0.05,0.22 -0.16,0.26c-0.02,0.01 -0.03,0.01 -0.05,0.01m19.91,-0.05l-0.05,0c-0.11,-0.03 -0.19,-0.14 -0.16,-0.25c0,-0.03 0.02,-0.07 0.02,-0.1c0.01,-0.11 0.14,-0.19 0.25,-0.17c0.11,0.01 0.19,0.12 0.18,0.25c0,0.03 -0.02,0.07 -0.02,0.11c-0.05,0.1 -0.13,0.16 -0.22,0.16m-20.04,-0.69c-0.11,0 -0.19,-0.08 -0.21,-0.19c0,-0.03 -0.01,-0.06 -0.01,-0.11a0.22,0.22 0 0 1 0.19,-0.24a0.22,0.22 0 0 1 0.24,0.19c0,0.03 0.02,0.07 0.02,0.11a0.22,0.22 0 0 1 -0.18,0.24l-0.05,0m20.17,-0.04l-0.04,0a0.22,0.22 0 0 1 -0.17,-0.24c0,-0.04 0.01,-0.07 0.01,-0.12c0.02,-0.11 0.13,-0.21 0.24,-0.19c0.12,0.02 0.21,0.13 0.2,0.24c0,0.03 -0.02,0.07 -0.02,0.11c-0.03,0.12 -0.13,0.2 -0.22,0.2m-20.25,-0.71c-0.11,0 -0.21,-0.1 -0.21,-0.19l0,-0.11c0,-0.12 0.08,-0.23 0.21,-0.23c0.13,0 0.23,0.08 0.23,0.21l0,0.11c0,0.1 -0.08,0.19 -0.23,0.21c0.02,0 0,0 0,0m20.31,-0.05s-0.02,0 0,0c-0.13,0 -0.23,-0.11 -0.21,-0.22l0,-0.11c0,-0.12 0.11,-0.21 0.23,-0.21c0.11,0 0.2,0.11 0.2,0.22l0,0.11c-0.01,0.13 -0.11,0.21 -0.22,0.21m-20.32,-0.7a0.2,0.2 0 0 1 -0.21,-0.21l0,-0.11c0,-0.12 0.09,-0.21 0.22,-0.21c0.11,0 0.21,0.09 0.21,0.22l0,0.11a0.24,0.24 0 0 1 -0.22,0.2m20.34,-0.05a0.21,0.21 0 0 1 -0.21,-0.21l0,-0.11c0,-0.11 0.09,-0.21 0.21,-0.23c0.11,0 0.2,0.1 0.2,0.21l0,0.11c0,0.13 -0.08,0.23 -0.2,0.23m-20.31,-0.71l-0.02,0c-0.11,-0.01 -0.21,-0.11 -0.19,-0.22c0,-0.03 0,-0.07 0.02,-0.11c0.01,-0.12 0.11,-0.21 0.24,-0.2c0.11,0.02 0.2,0.12 0.19,0.24c0,0.04 0,0.07 -0.02,0.12c-0.01,0.09 -0.11,0.17 -0.22,0.17m20.27,-0.05c-0.11,0 -0.21,-0.08 -0.21,-0.19c0,-0.03 0,-0.06 -0.01,-0.11c-0.02,-0.11 0.08,-0.22 0.19,-0.24c0.11,-0.02 0.23,0.08 0.24,0.19c0,0.03 0,0.07 0.02,0.11a0.2,0.2 0 0 1 -0.19,0.23l-0.04,0.01m-20.17,-0.69l-0.04,0a0.21,0.21 0 0 1 -0.17,-0.24c0,-0.03 0.01,-0.06 0.01,-0.11a0.22,0.22 0 0 1 0.24,-0.17a0.22,0.22 0 0 1 0.18,0.24c0,0.03 -0.02,0.06 -0.02,0.11a0.22,0.22 0 0 1 -0.2,0.18m20.08,-0.05a0.22,0.22 0 0 1 -0.21,-0.18c0,-0.03 -0.02,-0.06 -0.02,-0.11c-0.01,-0.11 0.07,-0.23 0.18,-0.26c0.11,-0.01 0.22,0.07 0.26,0.18c0,0.03 0.01,0.06 0.01,0.11a0.21,0.21 0 0 1 -0.17,0.24c-0.04,0.02 -0.04,0.02 -0.05,0.02m-19.94,-0.69l-0.05,0c-0.11,-0.03 -0.19,-0.15 -0.16,-0.26c0,-0.03 0.02,-0.06 0.03,-0.11c0.04,-0.11 0.15,-0.19 0.26,-0.16c0.11,0.03 0.19,0.14 0.16,0.26a0.23,0.23 0 0 1 -0.03,0.09c-0.03,0.11 -0.11,0.18 -0.21,0.18m19.79,-0.05a0.22,0.22 0 0 1 -0.2,-0.16c-0.02,-0.03 -0.02,-0.06 -0.04,-0.1c-0.03,-0.11 0.05,-0.22 0.16,-0.25s0.23,0.05 0.26,0.16c0.02,0.03 0.02,0.06 0.03,0.11c0.03,0.11 -0.05,0.22 -0.16,0.26c-0.01,-0.02 -0.03,-0.02 -0.05,-0.02m-19.6,-0.67c-0.01,0 -0.05,0 -0.06,-0.02c-0.11,-0.03 -0.18,-0.16 -0.15,-0.27c0.02,-0.03 0.02,-0.07 0.04,-0.11c0.03,-0.12 0.16,-0.18 0.27,-0.15c0.11,0.03 0.17,0.16 0.14,0.27c-0.01,0.04 -0.01,0.07 -0.03,0.1c-0.03,0.11 -0.11,0.18 -0.21,0.18m19.4,-0.05a0.23,0.23 0 0 1 -0.21,-0.15c-0.02,-0.03 -0.02,-0.06 -0.04,-0.09c-0.03,-0.11 0.02,-0.24 0.15,-0.27c0.11,-0.04 0.24,0.03 0.27,0.12c0.02,0.04 0.02,0.07 0.03,0.12c0.04,0.11 -0.03,0.24 -0.14,0.27l-0.06,0m-19.14,-0.67c-0.03,0 -0.05,0 -0.08,-0.02a0.23,0.23 0 0 1 -0.13,-0.27l0.05,-0.1c0.05,-0.11 0.17,-0.16 0.29,-0.11c0.11,0.05 0.16,0.18 0.11,0.29a0.23,0.23 0 0 0 -0.03,0.09a0.28,0.28 0 0 1 -0.21,0.12m18.88,-0.04a0.21,0.21 0 0 1 -0.19,-0.12a0.23,0.23 0 0 1 -0.04,-0.1a0.22,0.22 0 0 1 0.12,-0.29a0.22,0.22 0 0 1 0.29,0.11l0.04,0.1c0.05,0.11 -0.01,0.24 -0.11,0.27c-0.05,0.02 -0.08,0.03 -0.11,0.03m-18.58,-0.64c-0.03,0 -0.06,0 -0.09,-0.01c-0.12,-0.05 -0.15,-0.18 -0.1,-0.29l0.05,-0.1c0.05,-0.11 0.17,-0.14 0.29,-0.09c0.11,0.04 0.14,0.17 0.09,0.29l-0.05,0.09c-0.04,0.07 -0.12,0.11 -0.19,0.11m18.27,-0.04a0.21,0.21 0 0 1 -0.19,-0.13l-0.05,-0.1c-0.04,-0.11 -0.01,-0.24 0.1,-0.29c0.11,-0.05 0.24,-0.01 0.29,0.1l0.05,0.1c0.04,0.11 0.01,0.24 -0.1,0.28c-0.03,0.02 -0.06,0.04 -0.1,0.04m-17.91,-0.63a0.3,0.3 0 0 1 -0.12,-0.03c-0.09,-0.07 -0.14,-0.19 -0.08,-0.29l0.05,-0.1a0.23,0.23 0 0 1 0.29,-0.08a0.23,0.23 0 0 1 0.08,0.29l-0.05,0.1c-0.03,0.08 -0.11,0.11 -0.17,0.11m17.56,-0.03a0.21,0.21 0 0 1 -0.19,-0.11l-0.05,-0.1c-0.06,-0.1 -0.03,-0.24 0.08,-0.29c0.1,-0.06 0.24,-0.03 0.29,0.08c0.02,0.03 0.03,0.07 0.06,0.1c0.07,0.09 0.04,0.24 -0.08,0.29c-0.04,0.01 -0.08,0.03 -0.11,0.03m-17.16,-0.59c-0.05,0 -0.08,-0.02 -0.13,-0.04c-0.1,-0.06 -0.13,-0.19 -0.05,-0.3c0.02,-0.03 0.05,-0.07 0.06,-0.1c0.07,-0.09 0.21,-0.13 0.31,-0.05s0.13,0.21 0.05,0.31c-0.02,0.03 -0.04,0.06 -0.07,0.08a0.22,0.22 0 0 1 -0.17,0.1m16.76,-0.05a0.22,0.22 0 0 1 -0.18,-0.1c-0.01,-0.03 -0.03,-0.06 -0.06,-0.08a0.23,0.23 0 0 1 0.05,-0.3c0.09,-0.08 0.22,-0.05 0.3,0.04c0.02,0.04 0.05,0.07 0.07,0.1a0.23,0.23 0 0 1 -0.05,0.31c-0.05,0.01 -0.1,0.03 -0.13,0.03m-16.33,-0.56a0.18,0.18 0 0 1 -0.13,-0.05a0.21,0.21 0 0 1 -0.03,-0.31c0.01,-0.03 0.05,-0.04 0.06,-0.08a0.21,0.21 0 0 1 0.31,-0.03c0.09,0.08 0.11,0.21 0.03,0.31c-0.02,0.03 -0.05,0.04 -0.06,0.08a0.26,0.26 0 0 1 -0.18,0.08m15.87,-0.05a0.2,0.2 0 0 1 -0.16,-0.08c-0.02,-0.03 -0.05,-0.05 -0.07,-0.08c-0.08,-0.1 -0.06,-0.23 0.03,-0.31a0.21,0.21 0 0 1 0.31,0.04c0.01,0.03 0.05,0.04 0.06,0.08a0.21,0.21 0 0 1 -0.03,0.3c-0.05,0.05 -0.1,0.05 -0.14,0.05m-15.37,-0.51c-0.05,0 -0.12,-0.02 -0.15,-0.07a0.22,0.22 0 0 1 -0.01,-0.3l0.08,-0.08c0.08,-0.08 0.22,-0.1 0.3,0c0.08,0.08 0.1,0.22 0,0.3l-0.08,0.08a0.2,0.2 0 0 1 -0.14,0.07m14.89,-0.05a0.21,0.21 0 0 1 -0.16,-0.07c-0.02,-0.03 -0.05,-0.04 -0.07,-0.08a0.22,0.22 0 0 1 0,-0.3a0.22,0.22 0 0 1 0.31,0l0.08,0.08a0.21,0.21 0 0 1 -0.02,0.3a0.2,0.2 0 0 1 -0.14,0.07m-14.37,-0.5a0.21,0.21 0 0 1 -0.14,-0.37l0.08,-0.08c0.08,-0.08 0.22,-0.08 0.3,0.02c0.09,0.09 0.09,0.22 -0.01,0.3c-0.03,0.03 -0.05,0.05 -0.08,0.07c-0.03,0.04 -0.1,0.06 -0.15,0.06m13.82,-0.03a0.26,0.26 0 0 1 -0.14,-0.05a0.28,0.28 0 0 0 -0.08,-0.06c-0.1,-0.08 -0.1,-0.21 -0.02,-0.31a0.22,0.22 0 0 1 0.3,-0.01l0.08,0.08c0.08,0.08 0.1,0.2 0.02,0.3c-0.03,0.03 -0.1,0.05 -0.16,0.05m-13.24,-0.45a0.2,0.2 0 0 1 -0.16,-0.08c-0.08,-0.1 -0.06,-0.22 0.03,-0.3c0.04,-0.02 0.07,-0.05 0.08,-0.07c0.1,-0.08 0.23,-0.06 0.31,0.03c0.08,0.1 0.06,0.23 -0.03,0.31c-0.04,0.01 -0.05,0.05 -0.08,0.06a0.3,0.3 0 0 1 -0.15,0.05m12.68,-0.03a0.18,0.18 0 0 1 -0.13,-0.05c-0.03,-0.02 -0.05,-0.05 -0.08,-0.06c-0.1,-0.08 -0.11,-0.21 -0.03,-0.31c0.08,-0.1 0.21,-0.11 0.3,-0.03c0.04,0.02 0.07,0.05 0.08,0.06c0.1,0.08 0.12,0.21 0.04,0.31a0.26,0.26 0 0 1 -0.18,0.08m-12.09,-0.42a0.22,0.22 0 0 1 -0.17,-0.1a0.23,0.23 0 0 1 0.05,-0.3c0.03,-0.02 0.06,-0.05 0.09,-0.06c0.1,-0.07 0.23,-0.04 0.31,0.06c0.08,0.1 0.03,0.24 -0.07,0.3c-0.03,0.02 -0.06,0.04 -0.08,0.07c-0.05,0.02 -0.08,0.03 -0.13,0.03m11.48,-0.03c-0.05,0 -0.08,-0.02 -0.13,-0.03c-0.03,-0.02 -0.06,-0.04 -0.08,-0.07a0.22,0.22 0 0 1 -0.06,-0.3c0.06,-0.11 0.19,-0.13 0.3,-0.07a0.33,0.33 0 0 1 0.1,0.07a0.22,0.22 0 0 1 0.06,0.3a0.25,0.25 0 0 1 -0.19,0.1m-10.83,-0.37a0.21,0.21 0 0 1 -0.2,-0.11c-0.06,-0.1 -0.03,-0.24 0.08,-0.29l0.1,-0.05c0.1,-0.06 0.24,-0.01 0.29,0.08c0.05,0.1 0.01,0.24 -0.08,0.29l-0.1,0.05c-0.03,0.01 -0.06,0.03 -0.09,0.03m10.19,-0.03a0.3,0.3 0 0 1 -0.11,-0.03l-0.1,-0.05c-0.1,-0.07 -0.14,-0.19 -0.08,-0.29c0.06,-0.1 0.19,-0.14 0.29,-0.08l0.1,0.05c0.09,0.06 0.14,0.19 0.08,0.29c-0.04,0.08 -0.1,0.11 -0.18,0.11m-9.54,-0.34a0.21,0.21 0 0 1 -0.19,-0.13c-0.05,-0.11 -0.02,-0.24 0.1,-0.29l0.09,-0.04c0.11,-0.05 0.24,0 0.29,0.09c0.05,0.12 0,0.24 -0.09,0.29l-0.1,0.05c-0.03,0.03 -0.07,0.03 -0.1,0.03m8.88,-0.01c-0.03,0 -0.06,0 -0.09,-0.02l-0.1,-0.05a0.2,0.2 0 0 1 -0.1,-0.29a0.2,0.2 0 0 1 0.29,-0.09l0.1,0.04c0.11,0.05 0.14,0.18 0.09,0.29a0.22,0.22 0 0 1 -0.19,0.12m-8.19,-0.28a0.21,0.21 0 0 1 -0.19,-0.13a0.2,0.2 0 0 1 0.13,-0.27a0.23,0.23 0 0 1 0.09,-0.03a0.2,0.2 0 0 1 0.28,0.13a0.2,0.2 0 0 1 -0.13,0.27c-0.03,0.02 -0.07,0.03 -0.1,0.03c-0.03,-0.01 -0.05,0 -0.08,0m7.5,-0.03c-0.03,0 -0.05,0 -0.08,-0.01s-0.06,-0.04 -0.09,-0.04a0.22,0.22 0 0 1 -0.13,-0.27a0.22,0.22 0 0 1 0.27,-0.13a0.23,0.23 0 0 0 0.1,0.03a0.22,0.22 0 0 1 0.13,0.28c-0.04,0.09 -0.1,0.14 -0.2,0.14m-6.79,-0.22a0.23,0.23 0 0 1 -0.21,-0.15c-0.03,-0.11 0.03,-0.24 0.14,-0.27c0.04,-0.02 0.07,-0.02 0.12,-0.03c0.11,-0.03 0.24,0.03 0.27,0.14c0.03,0.11 -0.03,0.24 -0.15,0.27c-0.03,0.02 -0.06,0.02 -0.09,0.04c-0.03,-0.02 -0.05,0 -0.08,0m6.09,-0.02c-0.02,0 -0.05,0 -0.07,-0.02c-0.03,-0.01 -0.06,-0.01 -0.09,-0.03c-0.11,-0.03 -0.18,-0.16 -0.15,-0.27c0.04,-0.11 0.16,-0.18 0.28,-0.14c0.03,0.01 0.06,0.01 0.11,0.03a0.22,0.22 0 0 1 0.14,0.27c-0.05,0.1 -0.13,0.16 -0.22,0.16m-5.37,-0.19c-0.1,0 -0.19,-0.07 -0.21,-0.16c-0.03,-0.11 0.05,-0.23 0.16,-0.26c0.03,0 0.06,-0.01 0.11,-0.03c0.11,-0.03 0.23,0.05 0.26,0.16c0.03,0.11 -0.05,0.22 -0.16,0.26c-0.03,0 -0.07,0.01 -0.1,0.03l-0.06,0m4.65,0l-0.05,0c-0.03,0 -0.07,-0.02 -0.1,-0.02c-0.11,-0.03 -0.19,-0.14 -0.16,-0.25c0.03,-0.12 0.15,-0.2 0.26,-0.16c0.03,0 0.06,0.01 0.11,0.03c0.11,0.03 0.19,0.14 0.16,0.25c-0.05,0.07 -0.13,0.15 -0.22,0.15m-3.91,-0.15a0.21,0.21 0 0 1 -0.21,-0.17a0.22,0.22 0 0 1 0.17,-0.24c0.04,0 0.07,-0.02 0.12,-0.02a0.22,0.22 0 0 1 0.24,0.18a0.22,0.22 0 0 1 -0.18,0.24c-0.03,0 -0.06,0.01 -0.11,0.01l-0.03,0m3.17,0l-0.03,0c-0.03,0 -0.07,-0.01 -0.12,-0.01a0.22,0.22 0 0 1 -0.17,-0.24a0.22,0.22 0 0 1 0.24,-0.18c0.03,0 0.06,0.02 0.11,0.02a0.22,0.22 0 0 1 0.18,0.24a0.22,0.22 0 0 1 -0.21,0.17m-2.42,-0.08c-0.11,0 -0.21,-0.08 -0.21,-0.19c-0.02,-0.11 0.08,-0.22 0.19,-0.24l0.12,0c0.11,0 0.22,0.08 0.22,0.19s-0.08,0.23 -0.19,0.23l-0.11,0c0,0.01 -0.02,0.01 -0.02,0.01m1.67,-0.01l-0.13,0a0.2,0.2 0 0 1 -0.19,-0.23c0.01,-0.11 0.11,-0.2 0.22,-0.19l0.11,0c0.11,0.02 0.21,0.11 0.19,0.23c0,0.11 -0.09,0.19 -0.2,0.19m-0.92,-0.03a0.21,0.21 0 0 1 -0.21,-0.21c0,-0.11 0.1,-0.23 0.21,-0.23l0.18,0c0.11,0 0.21,0.1 0.21,0.23a0.21,0.21 0 0 1 -0.21,0.21l-0.07,0l-0.11,0zm2.39,20.5c-0.11,0.65 0,1.32 0.35,1.84l-0.16,0.11l-1.63,0.19c-0.19,-0.06 -0.08,-0.29 -0.11,-0.41c0.12,-0.05 0.33,0.03 0.48,0.14c0.25,-0.11 0.61,0.02 0.78,-0.29c0.02,-0.19 0,-0.41 -0.22,-0.46c-0.18,0.13 -0.18,0.32 -0.42,0.32c-0.13,-0.21 -0.14,-0.55 -0.06,-0.79l0.16,0c0,0.1 0.11,0.15 0.16,0.21c0.09,0.03 0.14,-0.05 0.21,-0.11c0.01,-0.18 0,-0.32 -0.16,-0.42c-0.29,0.13 -0.77,-0.05 -0.89,0.39l-0.11,0l-0.01,-0.53c0.56,-0.02 1.02,-0.28 1.63,-0.2m-3.43,0.18c0.03,0.19 -0.26,0.26 -0.14,0.48c0.2,0.26 0.41,0.61 0.75,0.72c0.19,-0.24 0.06,-0.59 0.08,-0.89c-0.1,-0.1 -0.21,-0.17 -0.16,-0.31c0.29,-0.05 0.53,0.06 0.78,0.08c-0.44,0.42 -0.19,1.17 -0.17,1.7l0.16,0.16c-0.79,0.51 -0.98,-0.58 -1.49,-0.82c-0.19,0.15 -0.18,0.45 -0.1,0.64l0.05,0.05c-0.26,0.11 -0.58,0 -0.85,-0.03c0,-0.11 0.22,-0.22 0.26,-0.37c0,-0.51 0.17,-1.02 0.01,-1.54c0.32,-0.05 0.6,0 0.82,0.13m-1.22,-0.18c0.03,0.2 -0.09,0.37 -0.25,0.44c-0.29,-0.12 -0.5,-0.4 -0.85,-0.36c-0.05,0.12 -0.18,0.26 -0.05,0.37c0.27,0.34 0.78,0.37 0.86,0.82c0.02,0.29 -0.17,0.45 -0.41,0.55c-0.61,0.08 -0.96,-0.52 -1.54,-0.5c-0.03,-0.15 0.14,-0.27 0.25,-0.32c0.37,-0.07 0.84,0.85 1.01,0.13c-0.25,-0.44 -1.17,-0.66 -0.76,-1.3c0.22,-0.34 0.68,-0.19 0.99,-0.13c0.29,0.05 0.42,0.43 0.75,0.3m7.1,-0.85c-0.01,0.58 0.26,1.25 0.77,1.57c0.02,0.31 -0.33,0.21 -0.46,0.39c-0.44,-0.02 -0.79,-0.26 -1.17,-0.4c-0.23,0.16 0.01,0.38 0.01,0.58c0.07,0.06 0.16,0.06 0.21,0.14c-0.22,0.13 -0.45,0.26 -0.74,0.23c0.07,-0.66 -0.22,-1.35 -0.62,-1.83c0.21,-0.1 0.5,-0.27 0.78,-0.29c0.04,0.24 -0.12,0.62 0.29,0.74c0.26,0.13 0.55,0.38 0.85,0.24c-0.09,-0.4 -0.21,-0.87 -0.61,-1.09c0.16,-0.16 0.42,-0.45 0.69,-0.28m-9.12,0.15c0.07,0.14 -0.09,0.11 -0.16,0.16c-0.32,0.46 -0.81,0.93 -0.59,1.54c-0.32,0.08 -0.51,-0.18 -0.75,-0.31c-0.05,-0.16 0.17,-0.12 0.25,-0.22c0.23,-0.47 0.82,-0.93 0.5,-1.49c0.32,-0.02 0.48,0.3 0.75,0.32m10.37,-0.91c-0.06,0.52 0.32,0.99 0.66,1.41c0.1,0.09 0.43,-0.02 0.32,0.25c-0.24,0.11 -0.43,0.34 -0.74,0.34c-0.16,-0.59 -0.38,-1.25 -0.97,-1.56c0.11,-0.27 0.46,-0.37 0.73,-0.45m-11.42,0.42c-0.15,0.16 -0.37,0.4 -0.63,0.44c0.03,-0.29 -0.19,-0.44 -0.38,-0.63c-0.16,-0.06 -0.23,0 -0.37,0.06c-0.26,0.63 1.01,1.08 0.19,1.64c-0.34,0.03 -0.64,0.01 -0.85,-0.31c0.14,-0.38 -0.9,-0.8 -0.08,-0.94c0.29,0.06 0.29,1.02 0.7,0.56c-0.19,-0.35 -0.52,-0.72 -0.4,-1.15c0.1,-0.21 0.29,-0.37 0.52,-0.39c0.61,-0.06 0.78,0.72 1.3,0.72m12.93,-1.6c-0.19,0.53 0.34,0.87 0.61,1.25c0.19,0.19 0.3,-0.13 0.46,-0.18c0.29,-0.08 -0.03,-0.64 0.36,-0.43c0.12,0.11 0.25,0.23 0.22,0.42c-0.56,0.45 -0.99,0.85 -1.55,1.3c-0.29,0.12 -0.29,-0.2 -0.44,-0.31c0.23,-0.08 0.56,-0.19 0.68,-0.5c-0.39,-0.33 -0.53,-1.02 -1.14,-1.02c0.09,-0.24 0.41,-0.4 0.62,-0.59l0.18,0.06zm-15.56,-0.08c-0.13,0.34 0.01,0.62 -0.04,0.95c-0.28,0.03 -0.51,-0.29 -0.8,-0.09l-0.21,-0.09c0.49,-0.27 -0.38,-1.24 0.52,-0.8c0.21,0.08 0.38,-0.23 0.53,0.03m18.97,-1.15c-0.04,0.24 -0.21,0.52 -0.46,0.59c-0.19,-0.48 -0.71,-0.87 -1.24,-0.87c-0.12,0.15 -0.3,0.29 -0.3,0.48c0.19,0.5 0.74,0.84 1.23,0.93c-0.09,0.2 -0.17,0.44 -0.41,0.55c-0.07,-0.07 -0.23,-0.07 -0.16,-0.21c-0.42,-0.48 -1.41,-0.87 -1.04,-1.67c0.19,-0.25 0.43,-0.4 0.73,-0.43c0.64,-0.08 1.01,0.63 1.65,0.63m-20.02,-0.98c0.23,0.22 0.28,0.59 0.18,0.9c-0.27,0.52 -0.99,0.56 -1.14,1.18c-0.27,0 -0.35,-0.35 -0.43,-0.58a2.11,2.11 0 0 0 1.25,-0.81c0.03,-0.26 -0.18,-0.47 -0.38,-0.58c-0.5,0 -0.95,0.19 -1.21,0.66l0,0.11c-0.28,-0.05 -0.32,-0.4 -0.43,-0.63c0.71,0 1.15,-0.7 1.89,-0.46l0.27,0.21zm20.36,-0.42c-0.19,0.19 -0.56,0.07 -0.67,0.34c-0.1,-0.02 -0.21,0.05 -0.28,-0.05c0.39,-0.37 -0.64,-0.83 0.08,-0.85c0.24,0.05 0.31,-0.27 0.58,-0.18c0.05,0.28 0.13,0.53 0.29,0.74m-21.57,-2.03l0,0.2c-0.18,0.02 -0.37,-0.11 -0.53,0.02a3.21,3.21 0 0 0 -0.61,1.12c0.37,0.19 0.61,-0.21 0.94,-0.22l0.31,-0.44c0.21,0.16 0.26,0.48 0.38,0.74c-0.67,-0.01 -1.28,0.19 -1.66,0.72c-0.31,0.08 -0.26,-0.27 -0.39,-0.41c-0.08,-0.5 0.4,-0.84 0.29,-1.27c-0.24,-0.08 -0.4,0.16 -0.53,0.27c-0.22,-0.11 -0.22,-0.41 -0.22,-0.67c0.56,0.22 0.97,-0.19 1.47,-0.29c0.18,-0.54 0.51,-0.01 0.55,0.23m16.33,-5.73c0.27,-0.2 0.46,0.15 0.74,0.1c0.08,-0.06 0.24,-0.1 0.32,0c0.04,-0.1 0.17,-0.03 0.25,-0.06c0.15,-0.02 0.15,-0.18 0.21,-0.28c-1.7,-0.21 -1.17,-2.16 -2.27,-3.01c0.06,-0.34 0.28,-0.61 0.19,-1.01c-0.13,-0.13 -0.18,-0.43 -0.43,-0.35c-0.1,0.16 -0.15,0.27 -0.31,0.37c-0.4,0.09 -0.62,-0.26 -0.96,-0.36c-0.69,0.16 -0.45,-0.62 -1.03,-0.77c-0.24,-0.04 -0.69,-0.16 -0.78,0.18l0.37,0.42c0.17,0.4 -0.05,0.77 -0.2,1.1c0,0.37 0.21,0.63 0.45,0.88c0.1,0.15 0.02,0.5 0.32,0.42c0.31,-0.13 0.32,-0.43 0.52,-0.69c0.09,0 0.14,0.1 0.2,0.16c-0.01,0.39 0.53,0.53 0.34,1c-0.16,0.51 -0.72,0.56 -1.02,0.91c-0.39,-0.05 -0.61,0.29 -0.95,0.38c-0.26,-0.06 -0.26,-0.35 -0.38,-0.51c0.04,-0.03 0.08,-0.13 0.16,-0.11c0.14,-0.05 0.17,-0.11 0.14,-0.27c-0.14,-0.21 -0.37,-0.26 -0.59,-0.31c-0.69,-0.59 0.11,-1.34 0.06,-2.05c-0.06,-0.88 -1.15,-0.54 -1.76,-0.75c-0.39,0.45 -1.32,-0.02 -1.46,0.67c0.13,0.08 -0.03,0.39 0.22,0.32c-0.03,-0.08 0.07,-0.11 0.1,-0.16c0.42,-0.1 0.91,0.07 1.17,0.45c-0.35,0.14 -0.71,-0.37 -1.06,-0.03c0.15,0.17 0.42,0.05 0.53,0.3c0.45,0.21 0.26,0.76 0.24,1.11c-0.14,0.48 -0.66,0.54 -0.98,0.82c-0.04,0.14 0.1,0.2 0.12,0.3c-0.15,0.42 -0.57,0.19 -0.84,0.13c-0.27,-0.23 -0.83,-0.18 -0.8,-0.67c-0.14,0 -0.19,-0.25 -0.37,-0.15c-0.06,-0.08 -0.19,-0.14 -0.22,-0.26c-0.24,-0.16 -0.43,-0.48 -0.29,-0.78c0.38,-0.48 0.5,0.42 0.96,0.24c-0.05,-0.45 0.23,-0.77 0.45,-1.12c0.14,-0.44 -0.06,-0.84 -0.19,-1.2c0.01,-0.29 0.37,-0.34 0.35,-0.6c-0.53,-0.25 -1.12,0.19 -1.14,0.71c-0.33,0.29 -0.77,0.33 -1.2,0.4c-0.22,-0.07 -0.32,-0.4 -0.59,-0.35c-0.08,0.14 -0.21,0.27 -0.15,0.48c-0.08,0.33 0.12,0.59 0.39,0.73a7.42,7.42 0 0 0 -0.76,1.82c-0.36,0.67 -1.04,0.89 -1.66,1.08c0.11,0.37 0.57,0.36 0.91,0.4c0.21,-0.03 0.56,-0.2 0.69,0.04c-0.69,1.14 -0.35,2.72 -1.55,3.62l0.36,0.05c1.08,-0.03 1.25,-1.25 1.7,-1.94l0.05,0.05c-0.24,1.42 0.13,3.23 -1.23,4.08c0.33,0.15 0.67,0.15 0.99,-0.01c0.63,-0.52 0.87,-1.27 0.96,-2.02c0.13,-0.53 0.1,-1.12 0.39,-1.59c0.21,0.23 0.03,0.63 0.17,0.9c-0.11,1.44 0.48,3.2 -0.59,4.23c0.1,0.03 0.14,0.14 0.27,0.1c1.17,-0.34 0.98,-1.75 1.11,-2.78c0.08,-0.48 0,-1.01 0.22,-1.42c0.04,0.21 0.16,0.38 0.12,0.62l0.16,0c0.12,-0.61 0.33,-1.17 0.38,-1.79l0.11,-0.11l0.16,0.16c0.1,-0.1 0.24,-0.26 0.26,-0.44c0.05,0.21 0.13,0.4 0.11,0.63c-0.26,0.38 0.13,1.01 -0.29,1.33c-0.19,0.46 -0.06,1.06 0.15,1.47c0.11,0.58 -0.07,1.22 -0.55,1.59c-0.16,-0.13 -0.27,-0.26 -0.22,-0.47a0.44,0.44 0 0 0 -0.39,-0.35a1.22,1.22 0 0 1 -0.25,0.59c-0.1,0.32 0.24,0.52 0.43,0.74c-0.21,0.64 -1.4,-0.16 -1.14,0.77l0.27,0c0.48,0.32 0.79,-0.38 1.25,-0.4c0.26,0.37 -0.43,0.63 -0.35,1.06c0.27,-0.05 0.56,-0.1 0.74,-0.39c-0.13,-0.56 0.53,-0.83 0.86,-1.07c0.44,-0.02 0.2,-0.48 0.26,-0.75c-0.19,0.03 -0.32,0.24 -0.53,0.27c-0.09,-0.05 -0.09,-0.14 -0.16,-0.21c0.15,-0.42 0.27,-0.88 0.61,-1.17c0.5,0.8 0.43,1.86 0.55,2.84c-0.05,0.35 -0.33,0 -0.53,0.11c-0.26,0.1 -0.16,0.43 -0.26,0.64a1.12,1.12 0 0 0 -0.69,-0.14c-0.11,0.04 -0.27,0.16 -0.21,0.32c0.45,0.16 0.42,0.69 0.82,0.88c-0.03,0.06 -0.1,0.05 -0.16,0.06c-0.21,0.08 -0.51,0.31 -0.47,0.6c0.34,0 0.65,0.24 0.95,0.14c0.11,0 0.26,-0.03 0.32,0.1c0.05,0.29 0.19,0.59 0.5,0.72c0.32,-0.11 0.75,-0.32 0.83,-0.66c-0.08,-0.62 0.53,0.08 0.83,-0.22c0.2,-0.05 0.44,0.24 0.53,-0.02c0.04,-0.43 -0.48,-0.51 -0.59,-0.83c0.27,-0.13 0.42,-0.53 0.72,-0.55c0.03,-0.14 -0.05,-0.25 -0.11,-0.37c-0.29,-0.21 -0.69,-0.03 -1.01,0.02c-0.16,-0.15 0.08,-0.26 -0.02,-0.42c-0.06,-0.22 -0.3,-0.22 -0.48,-0.25c-0.35,-0.56 -0.06,-1.27 -0.09,-1.9c0.16,-0.38 0.01,-0.99 0.49,-1.17c0.64,0.13 0.5,0.87 0.61,1.37c-0.24,0.29 -0.45,-0.18 -0.73,-0.1l0.06,0.37c0.05,0.14 0.21,0.26 0.37,0.21c0.48,0.19 0.93,0.48 0.98,1.04c0.16,0.21 0.44,0.11 0.59,0.35c0.1,-0.08 0.03,-0.21 0.05,-0.32c-0.12,-0.27 -0.63,-0.45 -0.44,-0.78c0.39,0.3 0.9,0.48 1.38,0.38c-0.17,-0.64 -0.89,-0.43 -1.23,-0.77c0.17,-0.19 0.48,-0.06 0.62,-0.33c0.1,-0.36 -0.19,-0.53 -0.17,-0.84c-0.61,-0.05 -0.29,0.67 -0.68,0.87c-0.17,-0.02 -0.17,-0.16 -0.32,-0.26c-0.48,-1.11 0.44,-2.02 -0.22,-3.06c0.18,-0.5 -0.19,-1.15 0.06,-1.68c0.18,0.08 0.18,0.32 0.32,0.46c0.08,0.02 0.1,-0.08 0.16,-0.11l0.12,0.1c0.03,0.6 0.16,1.18 0.35,1.73c0.18,-0.23 0.16,-0.52 0.3,-0.76l0.12,0.12l0.22,3.15l0.22,0.63c0.16,0.37 0.57,0.62 0.97,0.61l0,-0.12c-0.45,-0.33 -0.39,-0.88 -0.5,-1.36c0.05,-1.18 0.02,-2.39 0.13,-3.54l0.09,-0.11c0.39,1.23 0.31,2.72 1.4,3.6c0.25,0.02 0.53,0.18 0.78,0.04l0,-0.12c-1.02,-0.65 -1.09,-2.02 -1.12,-3.23l0.1,-0.12c0.03,0.1 0.14,0.04 0.21,0.05c0.24,0.26 0.41,0.53 0.54,0.84c0.24,0.33 0.59,0.62 1.03,0.6c0.16,-0.09 0.43,-0.03 0.46,-0.27c-1.5,-0.72 -0.88,-2.71 -1.6,-3.96m-2.45,-1.01c0.01,0.13 -0.13,0.12 -0.21,0.16c-0.05,-0.13 0.11,-0.16 0.21,-0.16m-3.88,-1.81c0.13,-0.09 0.33,-0.03 0.41,-0.22c0.04,-0.51 -0.46,-0.74 -0.81,-0.98c-0.07,0 -0.13,0.02 -0.16,-0.05c0.53,-0.05 0.86,0.71 1.38,0.34c0.14,-0.24 -0.33,-0.4 -0.02,-0.53c0.32,-0.02 0.53,0.16 0.59,0.46c0.02,0.74 -0.77,1.83 0.21,2.26l0.05,0.05c-0.24,0.02 -0.32,0.42 -0.63,0.28c-0.14,-0.12 -0.24,-0.36 -0.48,-0.26l-0.21,0.27c-0.16,-0.42 -0.59,-0.17 -0.84,-0.03c0.51,-0.35 0.57,-0.96 0.51,-1.59m-0.96,2.25c0.22,-0.26 0.59,-0.18 0.89,-0.29c0.21,0.09 0.2,0.43 0.48,0.35l0.26,-0.43c0.47,0.33 1.22,-0.35 1.24,0.56c-0.08,0.27 -0.2,0.54 -0.47,0.75c-0.38,-0.22 -0.37,-0.74 -0.54,-1.09c-0.42,0.02 -0.28,0.63 -0.68,0.71a1.23,1.23 0 0 1 -0.33,-0.68c-0.24,0.12 -0.16,0.44 -0.26,0.64c-0.19,0.15 -0.24,0.47 -0.51,0.44c-0.28,-0.29 -0.21,-0.64 -0.08,-0.96m1.81,0.85c-0.16,0.3 -0.32,0.77 -0.68,0.86c-0.14,-0.27 -0.46,-0.54 -0.28,-0.9c0.38,0.6 0.77,-0.51 0.96,0.04m-2.05,2.78c0.35,0.2 0.59,-0.16 0.89,-0.22l0.12,0.11c-0.04,0.36 -0.34,0.66 -0.61,0.85c-0.31,-0.01 -0.29,-0.35 -0.44,-0.51c0,-0.08 -0.04,-0.18 0.04,-0.23m0.35,-1.26c0,0.03 0,0.05 -0.02,0.06c0.02,0.15 0.26,0.03 0.32,0.13c0.04,0.27 0,0.53 -0.24,0.69c-0.13,0.06 -0.17,-0.1 -0.27,-0.14c-0.1,-0.16 -0.05,-0.39 -0.06,-0.58c0.04,-0.11 0.2,-0.02 0.25,-0.1c0,-0.01 0,-0.05 0.02,-0.06m-1.06,-2.15c-0.03,0.1 -0.14,0.03 -0.21,0.07l-0.05,-0.05c0.08,-0.04 0.2,-0.12 0.26,-0.02m0.37,2.1l0,-0.11l0.05,-0.16l-0.05,0.27zm0.02,-1.31c-0.26,0.19 -0.12,0.53 -0.31,0.75c-0.13,-0.06 -0.18,-0.39 -0.43,-0.26c-0.16,0.45 -0.08,0.98 -0.23,1.43c-0.09,-0.16 -0.04,-0.39 -0.06,-0.58l0.16,-0.16c-0.53,-0.06 -0.05,-1.15 -0.64,-0.61c-0.03,0.37 -0.13,0.77 -0.08,1.11l-0.26,3.01l-0.05,0.05c0.07,-1.54 -0.28,-3.06 -0.2,-4.7l-0.12,-0.2c-0.27,0.17 -0.41,0.41 -0.51,0.67l0,0.02l-0.02,0.01c-0.2,0.63 -0.08,1.41 -0.25,2.05c-0.29,0.88 -0.11,1.96 -0.9,2.66l-0.11,0c0.98,-1.37 0.59,-3.28 0.99,-4.87c-0.24,-0.22 0.24,-0.7 -0.22,-0.67c-0.55,0.98 -0.93,2.02 -1.52,2.98c-0.04,-0.23 0.28,-0.45 0.35,-0.69c0.05,-0.99 0.43,-1.88 0.78,-2.76c-0.01,-0.09 0.05,-0.27 -0.11,-0.25c-0.4,0.06 -0.7,0.37 -1.15,0.33l-0.21,0c0.34,-0.3 0.83,-0.46 1.14,-0.93c0.57,-0.67 0.46,-1.62 1.21,-2.24c0.05,-0.53 -0.88,0 -0.64,-0.63c0.56,0.52 1.16,-0.09 1.73,-0.14c0.15,-0.18 0.13,-0.42 0.31,-0.59c0.13,0.46 0.56,1.18 -0.02,1.63c-0.16,0.26 -0.35,-0.03 -0.57,0.07c-0.2,-0.04 -0.26,-0.29 -0.15,-0.45c0.05,0.01 0.08,-0.03 0.11,-0.05c0.1,0.06 0.04,0.21 0.16,0.26c0.13,0.03 0.23,-0.05 0.26,-0.16c0.08,-0.21 -0.13,-0.36 -0.27,-0.42c-0.27,-0.07 -0.5,0.09 -0.63,0.27c-0.09,0.19 -0.01,0.51 -0.03,0.69c-0.24,0.03 -0.61,0.11 -0.74,0.43c0,0.4 -0.33,0.68 -0.35,1.06c-0.06,0.16 -0.29,0.32 -0.19,0.48c0.43,-0.17 0.38,-0.7 0.82,-0.96c0,-0.06 -0.02,-0.13 0.04,-0.16c0.23,-0.05 0.4,0.29 0.65,0.3c-0.02,0.08 0.09,0.12 0.06,0.21l-0.05,0.05c-0.09,-0.16 -0.26,-0.16 -0.43,-0.14c-0.23,0.61 -0.75,1.1 -0.96,1.71l0.05,0.05c0.22,-0.48 0.75,-0.72 0.92,-1.23c0.37,0.2 0.68,-0.2 1,-0.08c-0.02,0.09 0.05,0.2 -0.05,0.27c-0.11,-0.05 -0.22,-0.13 -0.37,-0.1c-0.43,0.26 -0.42,0.79 -0.77,1.12c-0.05,0.31 -0.09,0.61 -0.14,0.9c0.05,0.03 0.08,0.13 0.16,0.1l0.09,-0.1c0,-0.01 0,-0.01 0.02,-0.03c-0.02,-0.53 0.31,-0.95 0.45,-1.41c0.26,-0.37 0.78,0.09 1.06,-0.29c0.06,0.05 0.22,0.02 0.16,0.16c-0.1,0.14 -0.19,-0.05 -0.32,0c-0.66,0.42 -0.44,1.28 -0.53,1.97l0.11,0.1c0.13,-0.29 0.13,-0.63 0.29,-0.9c0,-0.22 -0.16,-0.5 0.03,-0.69c0.23,-0.05 0.43,0.11 0.63,-0.01c-0.02,0.3 -0.18,0.6 -0.04,0.89c0.15,-0.13 0.13,-0.32 0.2,-0.48c0.22,-0.17 0.52,-0.29 0.67,-0.54c0.06,0 0.13,-0.02 0.16,0.05c-0.05,0.09 -0.21,0.12 -0.14,0.27c0.32,0.22 0.43,1.09 0.96,0.65c0.09,0.15 0.29,0.39 0.06,0.53c-0.22,0.34 -0.56,0.05 -0.69,-0.19c-0.16,-0.19 -0.11,-0.46 -0.33,-0.62m0.89,4.24c-0.21,0.16 -0.41,0.37 -0.69,0.18c-0.27,-0.1 -0.16,-0.51 -0.12,-0.74c0.22,-0.16 0.38,0.44 0.68,0.15l0.21,-0.16c0.39,0.11 -0.01,0.4 -0.08,0.57m0.28,0.42l0.11,0.1c0.09,0.51 0.19,0.99 0.24,1.52l-0.11,-0.1l-0.24,-1.52zm0.17,-1.27c0.02,-0.24 0.13,-0.48 0.35,-0.59c0.34,-0.05 0.32,0.35 0.49,0.51a1.36,1.36 0 0 1 -0.42,0.6c-0.29,0 -0.27,-0.34 -0.42,-0.52m0.48,4.75c0.07,0.06 0.07,0.16 0.16,0.21c0.13,0.01 0.21,-0.07 0.32,-0.12c0.28,0.26 -0.38,0.61 0.18,0.79c0.3,0.02 0.48,-0.3 0.78,-0.29a0.39,0.39 0 0 1 -0.25,0.43c-0.24,-0.03 -0.5,0.04 -0.58,0.28c-0.01,0.27 0.23,0.38 0.43,0.46c0.12,0 0.26,-0.03 0.32,0.1c-0.44,0.19 -0.78,-0.53 -1.21,-0.18c-0.13,0.43 0.38,0.91 -0.29,1.01c-0.59,-0.08 0.08,-1.15 -0.66,-0.88c-0.16,0.11 -0.35,0.32 -0.58,0.18l-0.04,-0.05c0.27,-0.13 0.59,-0.23 0.72,-0.55c-0.07,-0.11 -0.1,-0.22 -0.21,-0.3c-0.19,-0.08 -0.45,-0.02 -0.59,-0.26c0.25,0.24 0.81,-0.06 0.91,0.4c-0.1,0.03 -0.03,0.15 -0.05,0.21c0.07,0.1 0.16,0.11 0.27,0.1c0.15,0.14 -0.08,0.62 0.32,0.46c0.13,-0.22 0.1,-0.7 0.52,-0.64c0.05,-0.11 0.17,-0.26 0.05,-0.37c-0.37,-0.11 -0.1,-0.51 -0.34,-0.67c-0.24,0.03 -0.53,-0.07 -0.67,0.18c-0.15,-0.02 -0.26,-0.15 -0.37,-0.26l0,-0.1c0.25,-0.05 0.48,0.45 0.69,0.03c-0.13,-0.48 0.36,-0.72 0.19,-1.21l0.05,-0.05l-0.05,-0.05c0.11,-0.82 0.13,-1.65 0.32,-2.44l0.11,0.1c-0.59,0.99 -0.24,2.34 -0.45,3.48m-0.08,-5.96c-0.21,-0.31 -0.53,-0.63 -0.33,-1.05c0.32,0.39 1.15,-0.41 0.85,0.45c-0.08,0.23 -0.21,0.58 -0.52,0.6m0.58,0.14c0.29,0.1 0.67,0.47 0.94,0.08a0.97,0.97 0 0 1 -0.28,0.9c-0.29,0.03 -0.56,-0.21 -0.64,-0.47a0.58,0.58 0 0 1 -0.02,-0.51m0.77,-0.91l0.11,0c0.06,0.32 -0.06,0.54 -0.3,0.75c-0.16,-0.1 -0.29,-0.16 -0.32,-0.37c-0.1,-0.42 0.38,-0.16 0.51,-0.38m0.27,2.95c-0.18,0.11 -0.42,0.24 -0.62,0.12c-0.16,-0.21 -0.39,-0.24 -0.39,-0.51c0.26,-0.42 0.74,0.13 1,-0.29c0.25,0.18 0.01,0.44 0.01,0.68m1.04,-3.56a0.35,0.35 0 0 0 -0.16,-0.31c-0.11,0.02 -0.17,0.15 -0.25,0.21c-0.15,-0.24 -0.18,-0.54 -0.37,-0.77c-0.02,0 -0.03,0.02 -0.05,0.02c-0.29,0.33 -0.31,1.09 -0.9,1.04c-0.14,-0.11 -0.3,-0.29 -0.17,-0.46c0.27,-0.36 0.72,0.04 0.88,-0.45a0.36,0.36 0 0 1 0.17,-0.13l0.04,-0.03l0.01,0.01c0.23,-0.08 0.51,-0.09 0.45,-0.45c-0.08,-0.09 -0.21,-0.03 -0.32,-0.04c-0.02,-0.13 0.13,-0.12 0.21,-0.12c0.17,0.15 0.38,0.26 0.64,0.2c0.03,0.33 -0.26,0.6 -0.15,0.89l-0.03,0.39zm0.12,0.53c0.09,0.27 0.04,0.43 0.06,0.73c-0.18,-0.14 -0.13,-0.53 -0.06,-0.73m2.86,0.61l-0.16,0.04c-0.08,-0.32 0.02,-0.51 -0.01,-0.85c0.08,0.28 0.21,0.5 0.17,0.81m0.02,-1.64c0.1,-0.06 0.11,-0.16 0.1,-0.27l-0.12,-0.1c-0.14,0.16 -0.22,-0.16 -0.36,-0.14l-0.1,0.16c-0.23,1.67 -0.14,3.41 0.27,5a12.94,12.94 0 0 1 -0.27,-0.67c-0.27,-1.35 -0.16,-2.87 -0.83,-4.04c-0.08,-0.02 -0.1,0.08 -0.16,0.11l-0.13,1.43l-0.2,3.12l0.04,1.32c-0.26,-0.53 -0.21,-1.19 -0.31,-1.78c0.05,-1.27 0.08,-2.66 -0.35,-3.8c-0.06,0.01 -0.18,-0.03 -0.21,0.06c-0.01,-0.21 -0.21,-0.42 -0.06,-0.62c0.27,-0.26 0.05,-1.05 0.56,-0.85c0.05,-0.1 0.17,-0.04 0.25,-0.07c0.13,0.31 -0.11,0.6 -0.24,0.85c-0.11,0.37 0.02,0.92 0.13,1.32c0.16,0.01 0.05,-0.16 0.16,-0.21c-0.17,-0.26 0.12,-0.53 -0.06,-0.79c0.13,-0.51 0.58,-0.96 0.38,-1.54c0.04,-0.09 0.15,-0.03 0.21,-0.06c0.07,0.27 -0.11,0.58 0.13,0.83c0.35,0.18 0.19,0.66 0.38,0.95c0.02,-0.39 0.2,-0.98 -0.19,-1.27c-0.01,-0.32 0.18,-0.75 -0.13,-0.99c-0.14,-0.03 -0.2,0.08 -0.3,0.11c-0.1,-0.03 -0.03,-0.14 -0.06,-0.21c0.17,-0.16 0.36,-0.27 0.62,-0.22c-0.18,0.82 0.83,0.98 0.72,1.78l0.11,0.09a2.2,2.2 0 0 0 -0.17,-0.94c-0.45,-0.29 -0.16,-1.03 -0.47,-1.33c-0.03,-0.02 -0.06,-0.05 -0.08,-0.07c-0.08,-0.04 -0.19,-0.06 -0.33,-0.06c-0.04,0.05 -0.13,0.08 -0.1,0.16c-0.29,-0.08 0.1,-0.26 0.05,-0.42c0.05,-0.06 0.13,-0.08 0.21,-0.11c0,0.21 0.08,0.34 0.19,0.43c0.03,0.02 0.06,0.04 0.08,0.07c0.22,0.16 0.53,0.27 0.54,0.64l0.16,0.16l0.05,-0.05c-0.11,-0.37 -0.24,-0.78 -0.49,-1.04c-0.28,-0.32 -0.31,-1.04 -0.92,-0.93c-0.11,0.1 -0.22,0.26 -0.09,0.37l0.04,0.05l-0.09,0.11c-0.63,-0.31 -0.03,-1.48 -1.03,-1.3l-0.09,0.11l0.04,0.05l-0.04,0.05l-0.05,-0.05c-0.18,0.08 -0.08,0.24 -0.1,0.37c0.07,0.1 0.16,0.11 0.27,0.1l0.21,-0.28l0.16,0.16c-0.08,0.36 -0.67,0.18 -0.56,0.64c-0.25,-0.25 -0.62,-0.68 -0.34,-1.1c0.13,-0.21 0.18,-0.47 0.15,-0.74c0.1,0.16 0.03,0.43 0.27,0.47c0.21,-0.1 0.51,-0.16 0.74,-0.07c0.37,0.32 0.93,0.47 1.38,0.24c0.21,0.13 0.05,0.34 -0.05,0.48l-0.26,0.28c0.71,0.51 0.96,1.29 1.16,2.08c0.27,0.38 0.49,0.88 0.97,1.09c-0.51,0.03 -0.84,-0.4 -1.28,-0.61c-0.32,0.51 0.16,0.95 0.24,1.41c0,0.79 0.47,1.36 0.47,2.15l0.29,0.67c-0.73,-0.78 -0.76,-1.83 -1.11,-2.74m-16.28,3.83c-0.45,-0.45 -0.98,0.02 -1.48,0.03c-0.09,0.13 -0.21,0.31 -0.3,0.37c-0.13,-0.24 -0.24,-0.62 -0.13,-0.94c0.13,0.01 0.19,0.19 0.32,0.2c0.51,-0.11 1.12,0 1.52,-0.35c0.1,0.19 0.05,0.52 0.07,0.69m22.03,-0.91c0.42,0.14 0.82,0.49 1.27,0.33c0.03,0.15 0.16,0.26 0.06,0.42c-0.3,0.24 -1.05,0.16 -0.93,0.71c0.26,0.38 0.97,0.56 0.55,1.09c-0.03,0.06 -0.1,0.04 -0.16,0.04l-0.22,-0.2c-0.53,0.03 -1.13,-0.26 -1.59,0.09c-0.07,-0.01 -0.18,0.05 -0.21,-0.05c0.1,-0.24 0.05,-0.67 0.35,-0.69c0.11,0.36 0.55,0.12 0.8,0.24c0.07,-0.09 0.21,-0.03 0.26,-0.16c-0.13,-0.27 -0.37,-0.48 -0.54,-0.72c0.22,-0.19 0.52,-0.17 0.73,-0.43a1.76,1.76 0 0 0 -0.69,-0.35c-0.12,0.03 -0.2,0.16 -0.37,0.11l0.08,-0.78c0.28,-0.07 0.39,0.28 0.61,0.35m1.32,-2.73c0.09,0.24 0.05,0.56 0.06,0.85c-0.33,-0.21 -0.81,-0.24 -1.22,-0.13c-0.12,0.04 -0.2,0.18 -0.3,0.28a0.52,0.52 0 0 0 0.34,0.62c0.4,0 0.8,0 1.1,-0.24l0.16,0c-0.17,0.29 0.15,0.56 -0.03,0.85c-0.22,0.08 -0.3,-0.21 -0.48,-0.26c-0.53,-0.03 -1.19,0.18 -1.49,-0.33c-0.21,-0.32 -0.11,-0.77 0.08,-1.06c0.37,-0.5 1.22,-0.14 1.67,-0.56l0.11,-0.02zm-23.4,1.37c0.08,0.19 -0.08,0.36 -0.26,0.36c-0.56,0.28 -1.22,0.32 -1.67,0.84c-0.06,-0.23 -0.14,-0.6 0.04,-0.79c0.46,0.21 0.8,-0.14 1.15,-0.33c-0.13,-0.36 -0.58,-0.37 -0.85,-0.57l-0.37,0.07c0.05,-0.29 -0.03,-0.61 0.15,-0.85c0.48,0.58 1.17,0.93 1.81,1.27m22.81,-4l-0.16,0c-0.26,0.56 -0.89,0.47 -1.37,0.61a0.58,0.58 0 0 0 -0.37,0.02l0.13,0.62c0.21,0.32 0.31,-0.22 0.53,-0.17c0.13,0.09 0.19,0.21 0.16,0.37c-0.14,0.17 -0.3,0.3 -0.51,0.33c0,0.28 0,0.61 0.22,0.74c0.03,-0.1 0.15,-0.14 0.1,-0.27c0.11,-0.21 0.3,-0.42 0.58,-0.39c0.17,0.28 0.56,0.13 0.78,0.08c0.69,-0.51 0.02,-1.31 -0.09,-1.94m-0.39,1.43c-0.22,-0.03 -0.19,-0.27 -0.27,-0.42c0.13,-0.27 0.56,-0.17 0.48,0.15c0,0.17 -0.08,0.24 -0.21,0.27m-23.19,-0.94c-0.42,0.22 -0.55,0.65 -0.61,1.07c0.13,0.14 0.27,0.26 0.48,0.21c0.22,-0.18 0,-0.42 0.03,-0.64c0.19,0.04 0.42,0.04 0.58,0.14c0.13,0.26 -0.48,0.4 -0.03,0.58c0.38,0.06 0.4,-0.37 0.51,-0.6c0.08,-0.24 -0.16,-0.33 -0.18,-0.53c0.24,-0.04 0.42,0.09 0.6,0.2c-0.1,0.5 -0.42,0.91 -0.45,1.42c-0.21,0.18 -0.34,-0.17 -0.53,-0.19c-0.48,0.05 -0.88,-0.29 -1.38,-0.08c-0.08,-0.08 -0.08,-0.27 0,-0.37c0.15,-0.48 0.29,-0.96 0.45,-1.42c0.24,-0.08 0.35,0.13 0.53,0.21m22.74,-2.36c-0.4,-0.45 -1.22,-0.37 -1.59,0.08c-0.19,0.32 -0.28,0.82 -0.08,1.15c0.23,0.36 0.58,0.61 1.01,0.56c0.36,-0.06 0.71,-0.3 0.89,-0.54c0.09,-0.42 0.09,-0.93 -0.23,-1.25m-0.19,1.11c-0.23,0.2 -0.59,0.27 -0.9,0.17c-0.22,-0.11 -0.19,-0.33 -0.27,-0.51c0.08,-0.27 0.17,-0.51 0.46,-0.64c0.31,-0.03 0.63,-0.02 0.74,0.3c0.08,0.19 0.14,0.5 -0.03,0.68m-20.85,-0.53c-0.29,-0.02 -0.31,-0.32 -0.39,-0.52c-0.22,-0.08 -0.4,-0.29 -0.69,-0.19c-0.54,0.37 -0.72,1.06 -0.91,1.65c0.67,0.03 1.33,0.23 1.76,0.76c0.18,-0.21 0.29,-0.47 0.31,-0.74c-0.26,0 -0.39,0.08 -0.58,-0.1c0.03,-0.21 0.11,-0.41 0.26,-0.59c0.28,-0.15 0.43,0.21 0.59,0.3c0.16,-0.19 0.26,-0.41 0.35,-0.64c-0.22,-0.08 -0.43,0.13 -0.7,0.07m-0.98,0.65c-0.18,-0.03 -0.53,-0.08 -0.43,-0.35c0.2,-0.19 0.33,-0.7 0.67,-0.38c0.06,0.28 -0.06,0.51 -0.24,0.73m21.36,-2.27c-0.62,0.17 -1.37,0.48 -1.62,1.14l-0.04,0.04a2.43,2.43 0 0 1 -0.5,-0.78c0.71,0.03 1.27,-0.51 1.62,-1.09c0.29,0.09 0.37,0.46 0.54,0.69m-2.11,-2.39l-0.21,0c-0.26,0.5 -0.66,1.22 -1.3,1.3l0.82,0.83c0.3,0.19 0.79,0.29 1.11,0.08c0.38,-0.21 0.54,-0.61 0.56,-1.01c-0.13,-0.48 -0.55,-0.88 -0.98,-1.2m0.3,1.59c-0.11,0.19 -0.3,0.2 -0.46,0.27c-0.21,0.01 -0.31,-0.26 -0.48,-0.31c0.06,-0.35 0.45,-0.62 0.72,-0.86c0.14,-0.03 0.27,0.14 0.32,0.26c0.13,0.2 0.02,0.44 -0.1,0.64m-17.72,-0.08c-0.36,0.08 -0.64,0.27 -0.72,0.65c0.16,0.26 0.35,-0.04 0.52,-0.06c0.15,-0.23 0.36,-0.29 0.58,-0.34c0.21,0.07 0.51,0.02 0.59,0.31c0.1,0.35 -0.12,0.64 -0.4,0.8a0.91,0.91 0 0 0 -0.46,0.32a0.72,0.72 0 0 0 0,0.37c-0.05,-0.02 -0.08,0.03 -0.11,0.05c-0.15,-0.2 -0.29,-0.37 -0.28,-0.63c0.24,-0.13 0.53,-0.37 0.61,-0.64c-0.08,-0.18 -0.32,-0.11 -0.41,-0.05c-0.21,0.27 -0.48,0.39 -0.84,0.34c-0.19,-0.08 -0.29,-0.27 -0.32,-0.47c-0.08,-0.3 0.29,-0.48 0.47,-0.64c0.45,0.05 0.25,-0.85 0.67,-0.38l0.1,0.37zm0.75,-1.35c0.16,0.34 0.38,0.64 0.66,0.93c0.13,0.29 0.43,0.11 0.59,0.3c-0.19,0.13 -0.35,0.55 -0.67,0.48c-0.13,-0.56 -0.61,-1.01 -1.04,-1.39l-0.12,0c0.07,-0.19 0.47,-0.69 0.58,-0.32m14.95,-1.28c-0.51,0.19 -0.81,0.75 -0.81,1.28c0.08,0.21 0.3,0.3 0.53,0.26c0.32,-0.36 0.62,-0.73 0.7,-1.17l0.1,-0.12c0.17,0.2 0.54,0.26 0.54,0.58c-0.72,0.11 -0.67,1.15 -1.46,1.14c-0.37,-0.05 -0.77,-0.24 -0.91,-0.61c0.03,-0.67 0.48,-1.17 0.59,-1.81c0.31,0.05 0.55,0.27 0.72,0.45m-9.95,0.49c-0.19,-0.19 -0.58,-0.41 -0.7,-0.67c-0.32,-0.32 -0.68,-0.9 -1.13,-0.86a6.59,6.59 0 0 0 0.04,1.68c-0.04,0.21 -0.13,0.37 -0.15,0.59c0.26,-0.01 0.48,-0.09 0.67,-0.22c0.04,-0.16 -0.14,-0.21 -0.22,-0.31c0,-0.11 -0.02,-0.24 0.05,-0.32c0.19,-0.01 0.29,-0.25 0.53,-0.17c0.19,0.12 0.24,0.3 0.22,0.52c0.24,-0.09 0.5,-0.08 0.69,-0.24m-1.33,-0.61l-0.05,0.05c-0.11,-0.06 -0.13,-0.17 -0.06,-0.25c0.03,0.03 0.14,0.11 0.11,0.21m-1.31,0.03l0,0.16c-0.26,-0.07 -0.47,0.11 -0.58,0.27c0.14,0.43 0.43,0.95 0.91,1.09l0,0.11c-0.27,0.15 -0.51,0.4 -0.83,0.45c0.19,-0.54 -0.24,-0.96 -0.56,-1.36c-0.43,-0.15 -0.47,0.85 -0.79,0.13l0,-0.16l1.4,-0.93c0.27,-0.1 0.32,0.08 0.45,0.24m11.42,-0.68c0.12,0.1 0.32,0.2 0.18,0.37l-0.26,0.28c-0.2,-0.1 -0.25,-0.5 -0.59,-0.41c-0.26,0.44 -0.62,0.9 -0.45,1.45c-0.38,0.06 -0.61,-0.28 -0.96,-0.29c0.02,-0.27 0.43,-0.11 0.47,-0.43c0.14,-0.36 0.46,-0.71 0.4,-1.06c-0.21,-0.23 -0.5,-0.21 -0.79,-0.19c-0.06,-0.2 0.13,-0.29 0.19,-0.44c0.66,0.08 1.19,0.52 1.81,0.72m-5.01,-0.21c-0.31,0 -0.26,0.5 -0.63,0.39c-0.01,-0.3 -0.69,-0.48 -0.29,-0.67l0.42,-0.48c0.22,0.17 0.45,0.45 0.5,0.77m-2.98,-0.84c0.3,-0.09 0.7,0.19 0.99,-0.08c0.1,0.23 -0.14,0.34 -0.14,0.53c-0.28,-0.11 -0.63,-0.34 -0.9,-0.08c-0.08,0.19 0.14,0.29 0.27,0.31c0.42,0 0.9,0.09 1.07,0.49c0.12,0.32 -0.12,0.55 -0.35,0.69c-0.43,0.31 -0.88,-0.35 -1.22,0.19l-0.09,0c-0.05,-0.25 0.06,-0.46 0.09,-0.69c0.34,0.05 0.74,0.49 1.06,0.08c0.03,-0.16 0.02,-0.19 -0.06,-0.32c-0.4,-0.3 -1.24,0.05 -1.28,-0.65c-0.08,-0.23 0.08,-0.4 0.25,-0.48c0.11,0.04 0.24,-0.05 0.31,0.01m5.59,0.08c0.06,0.21 -0.18,0.34 -0.3,0.44c-0.23,-0.15 -0.45,-0.44 -0.76,-0.25c-0.09,0.04 -0.03,0.15 -0.05,0.21c0.26,0.26 0.74,0.31 0.81,0.68c0.06,0.33 -0.05,0.64 -0.36,0.8c-0.59,0.32 -0.91,-0.56 -1.54,-0.18c0.07,-0.22 0.24,-0.38 0.36,-0.59c0.38,0.06 0.49,0.51 0.96,0.4c0.11,-0.13 0.3,-0.27 0.14,-0.42c-0.32,-0.25 -0.94,-0.27 -0.91,-0.81c-0.1,-0.23 0.13,-0.33 0.19,-0.49c0.55,-0.17 0.96,0.23 1.46,0.21" id="svg_5"/>
  </g>
  <symbol id="b">
   <path d="m0,0.72l0.26,0c0.06,0 0.11,-0.01 0.14,-0.02a0.24,0.24 0 0 0 0.11,-0.06a0.31,0.31 0 0 0 0.07,-0.12a0.53,0.53 0 0 0 0.02,-0.17a0.47,0.47 0 0 0 -0.02,-0.15a0.32,0.32 0 0 0 -0.08,-0.13a0.25,0.25 0 0 0 -0.1,-0.06a0.44,0.44 0 0 0 -0.13,-0.01l-0.27,0l0,0.72m0.15,-0.13l0,-0.47l0.1,0c0.04,0 0.07,0 0.09,0.01a0.13,0.13 0 0 1 0.06,0.03a0.15,0.15 0 0 1 0.04,0.07a0.47,0.47 0 0 1 0.01,0.13a0.43,0.43 0 0 1 -0.01,0.12a0.16,0.16 0 0 1 -0.05,0.07a0.14,0.14 0 0 1 -0.06,0.04a0.66,0.66 0 0 1 -0.12,0l-0.06,0z" id="svg_6"/>
  </symbol>
  <symbol id="c">
   <path d="m0,0l0,0.72l0.53,0l0,-0.13l-0.38,0l0,-0.15l0.36,0l0,-0.12l-0.36,0l0,-0.2l0.4,0l0,-0.12l-0.55,0z" id="svg_7"/>
  </symbol>
  <symbol id="d">
   <path d="m0,0l0,0.72l0.23,0a0.84,0.84 0 0 0 0.17,-0.01a0.19,0.19 0 0 0 0.11,-0.07a0.22,0.22 0 0 0 0.04,-0.15a0.23,0.23 0 0 0 -0.03,-0.1a0.2,0.2 0 0 0 -0.13,-0.11a0.83,0.83 0 0 0 -0.15,-0.01l-0.09,0l0,-0.27l-0.15,0m0.15,0.59l0,-0.2l0.07,0c0.06,0 0.1,0.01 0.12,0.01c0.02,0.01 0.03,0.02 0.04,0.04a0.1,0.1 0 0 1 0.02,0.05a0.09,0.09 0 0 1 -0.02,0.07a0.1,0.1 0 0 1 -0.06,0.03a0.69,0.69 0 0 1 -0.11,0.01l-0.07,0l0.01,-0.01z" id="svg_8"/>
  </symbol>
  <symbol id="e">
   <path d="m0.72,0l-0.16,0l-0.06,0.16l-0.29,0l-0.06,-0.16l-0.15,0l0.28,0.72l0.15,0l0.29,-0.72m-0.27,0.28l-0.1,0.27l-0.09,-0.27l0.19,0z" id="svg_9"/>
  </symbol>
  <symbol id="f">
   <path d="m0,0l0,0.72l0.3,0a0.51,0.51 0 0 0 0.17,-0.02a0.16,0.16 0 0 0 0.08,-0.07a0.21,0.21 0 0 0 0.03,-0.12a0.19,0.19 0 0 0 -0.04,-0.13a0.23,0.23 0 0 0 -0.14,-0.06a0.33,0.33 0 0 0 0.07,-0.06a0.8,0.8 0 0 0 0.09,-0.12l0.08,-0.14l-0.17,0l-0.1,0.16a0.98,0.98 0 0 1 -0.08,0.1a0.11,0.11 0 0 1 -0.04,0.03a0.23,0.23 0 0 1 -0.08,0.01l-0.03,0l0,-0.3l-0.14,0m0.15,0.41l0.1,0c0.07,0 0.11,0.01 0.13,0.01c0.02,0.01 0.03,0.02 0.04,0.03c0.01,0.02 0.02,0.03 0.02,0.06a0.08,0.08 0 0 1 -0.02,0.05a0.09,0.09 0 0 1 -0.06,0.03a1.22,1.22 0 0 1 -0.1,0.01l-0.11,0l0,-0.19z" id="svg_10"/>
  </symbol>
  <symbol id="g">
   <path d="m0.21,0l0,0.59l-0.21,0l0,0.12l0.57,0l0,-0.12l-0.21,0l0,-0.59l-0.15,0z" id="svg_11"/>
  </symbol>
  <symbol id="h">
   <path d="m0,0l0,0.72l0.22,0l0.13,-0.49l0.13,0.49l0.21,0l0,-0.72l-0.13,0l0,0.56l-0.14,-0.56l-0.14,0l-0.14,0.56l0,-0.56l-0.14,0z" id="svg_12"/>
  </symbol>
  <symbol id="i">
   <path d="m0,0l0,0.72l0.14,0l0.3,-0.48l0,0.48l0.13,0l0,-0.72l-0.15,0l-0.29,0.47l0,-0.47l-0.13,0z" id="svg_13"/>
  </symbol>
  <symbol id="j">
   <path d="m0,0z" id="svg_14"/>
  </symbol>
  <symbol id="k">
   <path d="m0,0.37c0,0.07 0.01,0.13 0.03,0.18a0.34,0.34 0 0 0 0.07,0.1c0.03,0.03 0.06,0.05 0.09,0.06a0.39,0.39 0 0 0 0.16,0.03c0.1,0 0.19,-0.03 0.25,-0.1a0.38,0.38 0 0 0 0.09,-0.27a0.38,0.38 0 0 0 -0.09,-0.27a0.33,0.33 0 0 0 -0.25,-0.1a0.34,0.34 0 0 0 -0.26,0.1a0.37,0.37 0 0 0 -0.09,0.27m0.15,0c0,-0.08 0.02,-0.14 0.06,-0.18a0.18,0.18 0 0 1 0.14,-0.07c0.05,0 0.1,0.02 0.14,0.07c0.04,0.04 0.06,0.1 0.06,0.18c0,0.09 -0.02,0.15 -0.06,0.19a0.18,0.18 0 0 1 -0.14,0.06a0.18,0.18 0 0 1 -0.15,-0.06c-0.03,-0.05 -0.05,-0.11 -0.05,-0.19z" id="svg_15"/>
  </symbol>
  <symbol id="l">
   <path d="m0,0l0,0.72l0.49,0l0,-0.13l-0.34,0l0,-0.17l0.29,0l0,-0.12l-0.29,0l0,-0.3l-0.15,0z" id="svg_16"/>
  </symbol>
  <symbol id="m">
   <path d="m0,0l0,0.72l0.15,0l0,-0.29l0.28,0l0,0.29l0.14,0l0,-0.72l-0.14,0l0,0.31l-0.28,0l0,-0.31l-0.15,0z" id="svg_17"/>
  </symbol>
  <symbol id="n">
   <path d="m0,0l0,0.72l0.15,0l0,-0.72l-0.15,0z" id="svg_18"/>
  </symbol>
  <symbol id="o">
   <path d="m0.48,0.28l0.14,-0.05a0.32,0.32 0 0 0 -0.1,-0.17a0.31,0.31 0 0 0 -0.19,-0.06a0.31,0.31 0 0 0 -0.24,0.1a0.37,0.37 0 0 0 -0.09,0.26c0,0.12 0.03,0.22 0.09,0.28c0.06,0.07 0.15,0.1 0.25,0.1a0.3,0.3 0 0 0 0.21,-0.08a0.28,0.28 0 0 0 0.07,-0.13l-0.14,-0.03a0.15,0.15 0 0 1 -0.05,0.08a0.15,0.15 0 0 1 -0.1,0.04a0.16,0.16 0 0 1 -0.13,-0.06c-0.03,-0.04 -0.05,-0.1 -0.05,-0.18c0,-0.1 0.02,-0.16 0.05,-0.2a0.16,0.16 0 0 1 0.13,-0.06c0.03,0 0.07,0.02 0.09,0.04a0.21,0.21 0 0 1 0.06,0.12z" id="svg_19"/>
  </symbol>
  <symbol id="p">
   <path d="m0,0.25l0.14,0.01a0.17,0.17 0 0 1 0.05,-0.1a0.16,0.16 0 0 1 0.11,-0.04c0.04,0 0.08,0.01 0.1,0.03c0.03,0.02 0.04,0.04 0.04,0.07a0.06,0.06 0 0 1 -0.02,0.04a0.12,0.12 0 0 1 -0.05,0.03a1.78,1.78 0 0 1 -0.11,0.04a0.39,0.39 0 0 0 -0.17,0.07a0.19,0.19 0 0 0 -0.03,0.24c0.02,0.04 0.05,0.06 0.09,0.08a0.36,0.36 0 0 0 0.14,0.02c0.09,0 0.15,-0.02 0.2,-0.06a0.21,0.21 0 0 0 0.07,-0.15l-0.14,-0.01c-0.01,0.03 -0.02,0.06 -0.04,0.08s-0.05,0.02 -0.09,0.02a0.17,0.17 0 0 1 -0.1,-0.03a0.05,0.05 0 0 1 -0.03,-0.04c0,-0.02 0.01,-0.03 0.03,-0.04a0.38,0.38 0 0 1 0.13,-0.05a0.68,0.68 0 0 0 0.15,-0.05a0.2,0.2 0 0 0 0.11,-0.19a0.21,0.21 0 0 0 -0.13,-0.2a0.41,0.41 0 0 0 -0.16,-0.02a0.31,0.31 0 0 0 -0.2,0.06a0.27,0.27 0 0 0 -0.09,0.19z" id="svg_20"/>
  </symbol>
  <symbol id="q">
   <path d="m0.01,0.3l0.14,0l0,-0.1a0.34,0.34 0 0 0 -0.01,-0.09a0.14,0.14 0 0 0 -0.04,-0.07a0.2,0.2 0 0 0 -0.07,-0.04l-0.03,0.06c0.03,0.01 0.05,0.02 0.06,0.03a0.11,0.11 0 0 1 0.02,0.07l-0.07,0l0,0.14z" id="svg_21"/>
  </symbol>
  <symbol id="r">
   <path d="m0,0.73l0.15,0l0,-0.39c0,-0.06 0,-0.1 0,-0.12a0.12,0.12 0 0 1 0.04,-0.07a0.16,0.16 0 0 1 0.1,-0.03c0.04,0 0.07,0.01 0.09,0.03a0.1,0.1 0 0 1 0.04,0.06a0.81,0.81 0 0 1 0.01,0.12l0,0.4l0.14,0l0,-0.38a0.97,0.97 0 0 0 -0.01,-0.18a0.2,0.2 0 0 0 -0.13,-0.15a0.37,0.37 0 0 0 -0.14,-0.02a0.4,0.4 0 0 0 -0.15,0.02a0.23,0.23 0 0 0 -0.08,0.06a0.2,0.2 0 0 0 -0.04,0.08a0.87,0.87 0 0 0 -0.02,0.19l0,0.38z" id="svg_22"/>
  </symbol>
  <symbol id="s">
   <path d="m0.26,0l0,0.3l-0.26,0.42l0.17,0l0.17,-0.29l0.16,0.29l0.17,0l-0.26,-0.42l0,-0.3l-0.15,0z" id="svg_23"/>
  </symbol>
  <use fill="#fff" id="svg_34" transform="matrix(8.04 0 0 -8.04 195.617 34.05)" xlink:href="#j"/>
  <use fill="#fff" id="svg_37" transform="matrix(8.04 0 0 -8.04 208.875 34.05)" xlink:href="#j"/>
  <use fill="#fff" id="svg_50" transform="matrix(8.04 0 0 -8.04 272.118 34.05)" xlink:href="#j"/>
  <use fill="#fff" id="svg_59" transform="matrix(8.04 0 0 -8.04 319.924 34.05)" xlink:href="#j"/>
  <use fill="#fff" id="svg_67" transform="matrix(8.04 0 0 -8.04 357.511 34.05)" xlink:href="#j"/>
  <use fill="#fff" id="svg_71" transform="matrix(8.04 0 0 -8.04 376.968 34.05)" xlink:href="#j"/>
 </g>
</svg>